<svg width="80" height="60" viewBox="0 0 80 60" fill="none" xmlns="http://www.w3.org/2000/svg">
<g clip-path="url(#clip0_1671_586)">
<path d="M0 0H80.0125V60H0V0Z" fill="#C8102E"/>
<path d="M25.7125 0H34.2875V60H25.7125V0Z" fill="white"/>
<path d="M0 25.7125H80.0125V34.2875H0V25.7125Z" fill="white"/>
<g clip-path="url(#clip1_1671_586)">
<path fill-rule="evenodd" clip-rule="evenodd" d="M0 0H80V6.6625H0V0Z" fill="#0D5EAF"/>
<path fill-rule="evenodd" clip-rule="evenodd" d="M0 6.66248H80V13.3375H0V6.66248Z" fill="white"/>
<path fill-rule="evenodd" clip-rule="evenodd" d="M0 13.3375H80V20H0V13.3375Z" fill="#0D5EAF"/>
<path fill-rule="evenodd" clip-rule="evenodd" d="M0 20H80V26.6625H0V20Z" fill="white"/>
<path d="M0 0H33.3375V33.3375H0V0Z" fill="#0D5EAF"/>
<path fill-rule="evenodd" clip-rule="evenodd" d="M0 26.6625H80V33.3375H0V26.6625Z" fill="#0D5EAF"/>
<path fill-rule="evenodd" clip-rule="evenodd" d="M0 33.3375H80V40H0V33.3375Z" fill="white"/>
<path fill-rule="evenodd" clip-rule="evenodd" d="M0 40H80V46.6625H0V40Z" fill="#0D5EAF"/>
<path fill-rule="evenodd" clip-rule="evenodd" d="M0 46.6625H80V53.3375H0V46.6625Z" fill="white"/>
<path fill-rule="evenodd" clip-rule="evenodd" d="M13.3375 0H20V33.3375H13.3375V0Z" fill="white"/>
<path fill-rule="evenodd" clip-rule="evenodd" d="M0 13.3375H33.3375V20H0V13.3375Z" fill="white"/>
<path d="M0 53.3375H80V60H0V53.3375Z" fill="#0D5EAF"/>
</g>
<g clip-path="url(#clip2_1671_586)">
<path d="M0 0H80V60H0V0Z" fill="white"/>
<path d="M0 21.8125H80V38.1875H0V21.8125Z" fill="#002F6C"/>
<path d="M21.9375 0H38.3V60H21.925L21.9375 0Z" fill="#002F6C"/>
</g>
<g clip-path="url(#clip3_1671_586)">
<path d="M0 0H80V60H0V0Z" fill="#005293"/>
<path d="M22 0V24H0V36H22V60H34V36H80V24H34V0H22Z" fill="#FECB00"/>
</g>
<g clip-path="url(#clip4_1671_586)">
<path d="M0 0H80V30H0V0Z" fill="white"/>
<path d="M0 30H80V60H0V30Z" fill="#D7141A"/>
<path d="M45 30L0 0V60L45 30Z" fill="#11457E"/>
</g>
</g>
<defs>
<clipPath id="clip0_1671_586">
<rect width="80" height="60" fill="white"/>
</clipPath>
<clipPath id="clip1_1671_586">
<rect width="80" height="60" fill="white"/>
</clipPath>
<clipPath id="clip2_1671_586">
<rect width="80" height="60" fill="white"/>
</clipPath>
<clipPath id="clip3_1671_586">
<rect width="80" height="60" fill="white"/>
</clipPath>
<clipPath id="clip4_1671_586">
<rect width="80" height="60" fill="white"/>
</clipPath>
</defs>
</svg>
