<svg version="1.1" id="Camada_1" xmlns="http://www.w3.org/2000/svg" x="0" y="0" viewBox="0 0 793.7 139.7" xml:space="preserve"><style>.st0{fill:#fff}.st1{fill:#a30000}</style><path class="st0" d="M484.8 19.5h22.5c12.2 0 17.3 4.9 17.4 16.4v11.7c-.1 15.7-4.3 20-19 20.1h-5.3V87h-15.6V19.5zm20.3 36.1c2.4 0 3.4-1.4 3.4-5V34.4c0-2.2-.8-2.8-3.5-2.8h-4.6v24h4.7zm30.7-36.1h25.4L571.6 87h-15.9l-2-16.2h-10.1l-2 16.2h-15.9l10.1-67.5zm12.9 9.3h-.2l-3.6 30.5h7.5l-3.7-30.5zm40.7 5.5h-.2l.9 52.6h-14.4V19.5h22.8L610 72.1l.2-.2-1.2-52.4h14.5V87h-22.8l-11.3-52.7zm55.2 35.4c0 5.6.6 6.5 4.7 6.5 3.4 0 4.7-1 4.7-3.9V65c0-4-.7-4.8-6.6-6.3-14.9-3.3-17.1-5.7-17.2-18.4v-4.1c0-14.1 3.4-17.3 18.6-17.3 14.5 0 19.2 3.2 19.2 13.2V40h-13.9v-3.2c0-5.8-.5-6.5-4.2-6.5-3.9 0-4.8.9-4.8 4.9v4.4c0 4.1.9 5.1 5.8 6.2 16.7 4.1 18.5 6.3 18.5 21.5 0 16.3-4 20.4-19.6 20.4-15.9 0-19.7-3.3-19.7-17.3v-5.6h14.5v4.9zM676 19.5h15.6V87H676V19.5zm22.5 13.1c0-10 5.7-13.9 20.2-13.9 14.6 0 20.2 3.8 20.2 13.9v41.2c0 10-5.7 13.9-20.3 13.9s-20.1-3.8-20.1-13.9V32.6zm24.3.8c0-2.3-1-3.1-4-3.1s-4 .7-4 3.1V73c0 2.4 1 3.1 4.1 3.1 2.9 0 4-.8 4-3.1l-.1-39.6zm36.8.9h-.2l.9 52.6h-14.4V19.5h22.8l11.4 52.6.2-.2-1.1-52.4h14.5V87h-22.8l-11.3-52.7z"/><path class="st1" d="M362.6 45.9L316.7 0h70.9L398 10.4l-10.2 10.2-6.2-6.1h-29.9l21.1 21.1z"/><path class="st0" d="M387.6 106.5h-70.9l45.9-45.9 10.2 10.2L351.7 92h29.9l13.6-13.6-25.3-25.2L423.2 0h70.9l-45.9 45.9L438 35.6l21.1-21.1h-29.9l-38.8 38.7 25.2 25.2z"/><path class="st1" d="M494.1 106.5h-70.9l-10.4-10.4L423 85.8l6.2 6.2h29.9l-46.3-46.4L423 35.4z"/><path class="st0" d="M14.5 69.7c0 5.6.6 6.5 4.7 6.5 3.4 0 4.7-1 4.7-3.9V65c0-4-.7-4.8-6.6-6.3C2.3 55.3.1 53 0 40.2v-4.1C0 22 3.4 18.8 18.6 18.8c14.5 0 19.2 3.2 19.2 13.2v8H24v-3.2c0-5.8-.5-6.5-4.1-6.5-3.9 0-4.8.9-4.8 4.9v4.4c0 4.1.9 5.1 5.8 6.2 16.7 4.1 18.5 6.3 18.5 21.5 0 16.3-4 20.4-19.6 20.4C3.9 87.7 0 84.4 0 70.4v-5.6h14.5v4.9zM85 70.9c0 6.5-1.3 10.7-4.2 13.3-2.8 2.5-7.3 3.5-15.6 3.5-15.2 0-19.7-3.8-19.7-16.8V19.5H61v51.8c0 2.9 1.3 4.2 4.2 4.2 2.8 0 4.1-1.3 4.1-4.2V19.5H85v51.4zm7.3-51.4h22.5c12.2 0 17.3 4.9 17.4 16.4v11.7c-.1 15.7-4.3 20-19 20.1h-5.3V87H92.3V19.5zm20.3 36.1c2.4 0 3.4-1.4 3.4-5V34.4c0-2.2-.8-2.8-3.5-2.8H108v24h4.6zm24.9-36.1h19.3c16.9 0 21.5 3.4 21.5 16.1v8.1c-.1 9-2.7 12.4-10.6 13.8v.2c8.5 1.7 10.4 3.7 10.6 10.9V87h-15.6V67.6c0-2.9-1.7-3.9-7-3.9h-2.6V87h-15.6V19.5zm15.6 32.6h3c5.4 0 6.6-1.1 6.6-5.9V36.1c0-3.5-1.4-5.1-4.9-5.1H153l.1 21.1zm31.8-32.6H215v12.1h-14.5v14.8h13.4v11.5h-13.4v16.9H216V87h-31.2l.1-67.5zm51.7 10.4h-.2V87h-14V19.5H247l7.6 53.1h.2l7.6-53.1H287V87h-14.2l.5-56.9h-.2l-10 56.9h-17.9l-8.6-57.1zm58.2-10.4h30.1v12.1h-14.5v14.8h13.4v11.5h-13.4v16.9H326V87h-31.2V19.5zm-59.3 115.7c-.7 3-2.8 4.4-6.1 4.4-1.9 0-3.4-.5-4.5-1.4-1.1-1-1.7-2.4-1.7-4 0-3.4 2.5-5.6 6.3-5.6 1.8 0 3.2.5 4.4 1.5.8.7 1.3 1.5 1.5 2.5h-2.8c-.5-1.3-1.5-2-3.1-2-2.1 0-3.5 1.5-3.5 3.6 0 2 1.4 3.5 3.5 3.5 1.7 0 2.6-.7 3.2-2.4l2.8-.1zm16.6 4.1h-2.6V129h6.7c1.2 0 1.9.1 2.5.5.8.5 1.3 1.4 1.3 2.3 0 1.2-.6 2.1-1.8 2.6 1 .4 1.3.9 1.4 2.6 0 1.3.1 1.7.4 2.3h-2.9c-.2-.6-.2-.8-.2-1.8 0-1.5-.4-2-1.7-2h-3.1v3.8zm3.5-5.9c.6 0 .8 0 1-.2.4-.2.6-.6.6-1s-.2-.8-.6-1c-.2-.1-.5-.1-1-.1h-3.4v2.4l3.4-.1zm19 5.9V129h9.5v2.1h-6.9v1.7h6.1v2.1h-6.1v2.3h6.9v2.1h-9.5zm26.8-2.2l-1 2.2h-2.9l4.9-10.3h2.5l4.9 10.3H307l-1-2.2h-4.6zm2.9-3.8c-.3-.6-.4-1-.6-1.4-.2.5-.2.6-.6 1.5l-.7 1.6h2.7l-.8-1.7zm23.2 6h-2.6V131h-3.6v-2.1h9.7v2.1h-3.6v8.3h.1zm17.3 0V129h2.6v10.3h-2.6zm25.3 0l-2.7-3.5c-1.4-1.8-2.2-3.1-2.9-4.1.1.9.1 1.2.1 4.5v3.1h-2.5V129h3.1l2.5 3.3c1 1.3 2.4 3.3 3.1 4.3 0-.6-.1-2-.1-4.4V129h2.5v10.3h-3.1zm27.9 0l-.2-1.1c-1.5 1.1-2.5 1.4-4.2 1.4-3.5 0-5.9-2.2-5.9-5.4 0-1.6.6-3 1.7-4 1.1-1.1 2.7-1.6 4.7-1.6 3.1 0 5.1 1.3 5.7 3.8H397c-.5-1.2-1.5-1.9-3-1.9-2 0-3.5 1.5-3.5 3.6 0 2 1.5 3.5 3.5 3.5 1.4 0 2.5-.6 3.3-1.9h-2.6v-2.1h5.1v5.7H398zm33.6-10.4h5.2c1.9 0 3 .2 4 .9 1.3.9 2.1 2.4 2.1 4.2 0 1.7-.8 3.3-2.2 4.2-1 .7-2.3 1-4 1h-5.2l.1-10.3zm5.2 8.3c2.1 0 3.3-1.1 3.3-3.1s-1.2-3.1-3.3-3.1h-2.6v6.2h2.6zm23 2.1h-2.6V129h6.7c1.2 0 1.9.1 2.5.5.8.5 1.3 1.4 1.3 2.3 0 1.2-.6 2.1-1.8 2.6 1 .4 1.3.9 1.4 2.6 0 1.3.1 1.7.4 2.3h-2.9c-.2-.6-.2-.8-.2-1.8 0-1.5-.4-2-1.7-2h-3.1v3.8zm3.4-5.9c.6 0 .8 0 1-.2.4-.2.6-.6.6-1s-.2-.8-.6-1c-.2-.1-.5-.1-1-.1h-3.4v2.4l3.4-.1zm19.1 5.9V129h9.5v2.1h-6.9v1.7h6.1v2.1h-6.1v2.3h6.9v2.1h-9.5zm26.8-2.2l-1 2.2h-2.9l4.9-10.3h2.5l4.9 10.3h-2.9l-1-2.2h-4.5zm2.8-3.8c-.3-.6-.4-1-.6-1.4-.2.5-.2.6-.6 1.5l-.7 1.6h2.7l-.8-1.7zm30.5 6v-5.1c0-.8 0-1.3.1-1.8-.1.3-.2.4-.3.6l-.4.9-2.5 5.4H537l-2.7-5.6c-.1-.2-.2-.3-.3-.5-.1-.1-.1-.3-.2-.4l-.2-.3c.1.7.1.8.1 1.3v5.5h-2.6V129h3.5l2.9 6c.2.6.5 1.1.6 1.4l.1-.2.2-.6.3-.6 2.8-6h3.4v10.3h-2.5zm25-7.3c-.2-.6-.4-.9-.9-1.2-.5-.2-1-.4-1.8-.4-1.5 0-2.5.5-2.5 1.2 0 .6.4.9 1.5 1l2.5.3c1.3.1 2 .3 2.8.6 1 .5 1.5 1.4 1.5 2.5 0 1.2-.7 2.3-1.9 2.9-1 .5-2.2.7-3.8.7-2.1 0-3.6-.4-4.5-1.2-.7-.6-1-1.3-1.1-2.7h2.7c.1.7.3 1 .7 1.4.6.4 1.3.6 2.4.6 1.7 0 2.7-.5 2.7-1.4 0-.7-.5-1-1.7-1.1l-3-.2c-2.3-.2-3.5-1.3-3.5-2.9 0-2.2 2-3.5 5.2-3.5 1.6 0 3.1.4 4 1 .8.6 1.2 1.2 1.4 2.4h-2.7z"/></svg>