<svg width="81" height="63" viewBox="0 0 81 63" fill="none" xmlns="http://www.w3.org/2000/svg">
<g clip-path="url(#clip0_270_16617)">
<path d="M80.0695 0H0.0683594V59.741H80.0695V0Z" fill="#006A44"/>
<path d="M80.0695 40.0914H0.0683594V60.0023H80.0695V40.0914Z" fill="#C1272D"/>
<path fill-rule="evenodd" clip-rule="evenodd" d="M0.0683594 0H80.0707V19.911H0.0683594V0Z" fill="#FDB913"/>
</g>
<g clip-path="url(#clip1_270_16617)">
<path d="M0 2.63196H80V62.632H0V2.63196Z" fill="white"/>
<path d="M40 2.63196H80V62.632H40V2.63196Z" fill="#CF142B"/>
<path d="M16.4618 9.53577H23.9882V16.6851C24.2739 16.6648 24.5687 16.7118 24.8499 16.8223C25.1311 16.9329 25.391 17.1041 25.6095 17.3225C25.8279 17.541 25.9991 17.8009 26.1097 18.0821C26.2202 18.3633 26.2672 18.6581 26.2469 18.9438H33.3962V26.4702H26.2469C26.2672 26.7558 26.2202 27.0507 26.1097 27.3318C25.9991 27.613 25.8279 27.8729 25.6095 28.0914C25.391 28.3099 25.1311 28.481 24.8499 28.5916C24.5687 28.7021 24.2739 28.7491 23.9882 28.7288V35.8782H16.4618V28.7288C16.1762 28.7491 15.8813 28.7021 15.6002 28.5916C15.319 28.481 15.0591 28.3099 14.8406 28.0914C14.6221 27.8729 14.451 27.613 14.3404 27.3318C14.2299 27.0507 14.1829 26.7558 14.2032 26.4702H7.05383V18.9438H14.2032C14.1829 18.6581 14.2299 18.3633 14.3404 18.0821C14.451 17.8009 14.6221 17.541 14.8406 17.3225C15.0591 17.1041 15.319 16.9329 15.6002 16.8223C15.8813 16.7118 16.1762 16.6648 16.4618 16.6851V9.53577Z" stroke="#CF142B" stroke-width="0.9408"/>
<path d="M23.9442 16.6888C24.2358 16.6609 24.5387 16.7038 24.8281 16.8139C25.1175 16.9241 25.3853 17.0984 25.6095 17.3226C25.8337 17.5468 26.008 17.8145 26.1181 18.1039C26.2283 18.3934 26.2711 18.6963 26.2432 18.9879V26.4261C26.2711 26.7177 26.2283 27.0206 26.1181 27.3101C26.008 27.5995 25.8337 27.8672 25.6095 28.0914C25.3853 28.3156 25.1175 28.4899 24.8281 28.6C24.5387 28.7102 24.2358 28.7531 23.9442 28.7252H16.506C16.2143 28.7531 15.9114 28.7102 15.622 28.6C15.3326 28.4899 15.0648 28.3156 14.8406 28.0914C14.6164 27.8672 14.4422 27.5995 14.332 27.3101C14.2219 27.0206 14.179 26.7177 14.2069 26.4261V18.9879C14.179 18.6963 14.2219 18.3934 14.332 18.1039C14.4422 17.8145 14.6164 17.5468 14.8406 17.3226C15.0648 17.0984 15.3326 16.9241 15.622 16.8139C15.9114 16.7038 16.2143 16.6609 16.506 16.6888H23.9442Z" fill="white"/>
<path d="M16.5059 9.57983H23.9441V35.834H16.5059V9.57983ZM7.0979 18.9878H33.3521V26.426H7.0979V18.9878Z" fill="white" stroke="black" stroke-width="0.0882"/>
<path d="M16.9323 10.0062H23.5179V35.4078H16.9323V10.0062ZM7.52429 19.4142H32.9259V25.9998H7.52429V19.4142Z" fill="white" stroke="black" stroke-width="0.1764"/>
<path d="M20.2251 28.587C23.4725 28.587 26.1051 25.9545 26.1051 22.707C26.1051 19.4596 23.4725 16.827 20.2251 16.827C16.9777 16.827 14.3451 19.4596 14.3451 22.707C14.3451 25.9545 16.9777 28.587 20.2251 28.587Z" fill="white" stroke="black" stroke-width="0.1764"/>
<path d="M20.225 27.0581C22.6281 27.0581 24.5762 25.11 24.5762 22.7069C24.5762 20.3038 22.6281 18.3557 20.225 18.3557C17.8219 18.3557 15.8738 20.3038 15.8738 22.7069C15.8738 25.11 17.8219 27.0581 20.225 27.0581Z" fill="white" stroke="black" stroke-width="0.1764"/>
<path d="M25.8918 17.9937C25.6879 18.1499 25.3001 18.5487 25.0649 18.8408L24.8463 18.7049C25.1458 18.4458 25.5611 18.0617 25.7908 17.7879L25.8918 17.9937ZM25.7062 17.6538C25.3369 17.7622 24.6313 17.9699 24.3299 18.161L24.2638 18.0654C24.3906 17.8835 24.5339 17.1356 24.5284 16.9225L24.7581 16.9739C24.6827 17.1577 24.6092 17.5509 24.589 17.8063C24.8261 17.7641 25.3883 17.5803 25.5482 17.4645L25.7062 17.6538Z" fill="white" stroke="black" stroke-width="0.0882" stroke-linejoin="round"/>
<path d="M26.18 18.4956H25.8886C25.9146 18.3417 25.8728 18.149 25.7699 17.9486C25.667 17.7483 25.509 17.552 25.3216 17.3917C25.1342 17.2313 24.9282 17.1163 24.7372 17.0652C24.5462 17.0141 24.3812 17.03 24.269 17.1102C24.1569 17.1904 24.1041 17.3303 24.1192 17.5072C24.1344 17.6841 24.2165 17.8876 24.3524 18.0848C24.4883 18.282 24.67 18.4613 24.868 18.5937C25.066 18.726 25.2687 18.8037 25.4433 18.8141L25.6493 18.5684L25.9031 18.8221L25.6192 19.1059C25.3544 19.0665 25.0939 18.9714 24.8551 18.827C24.6164 18.6825 24.4051 18.4921 24.2354 18.2687C24.0657 18.0452 23.9417 17.7938 23.8716 17.5315C23.8015 17.2692 23.7871 17.0022 23.8293 16.7483C24.0797 16.7067 24.343 16.7202 24.6019 16.7879C24.8608 16.8555 25.1095 16.9759 25.3315 17.1409C25.5536 17.306 25.744 17.512 25.8902 17.7455C26.0365 17.979 26.1352 18.2346 26.18 18.4956Z" fill="white" stroke="black" stroke-width="0.0882" stroke-linejoin="round"/>
<path d="M24.9383 28.3738C24.7821 28.1698 24.3833 27.7821 24.0912 27.5469L24.2271 27.3282C24.4862 27.6277 24.8703 28.043 25.1441 28.2727L24.9383 28.3738ZM25.2782 28.1882C25.1698 27.8188 24.9621 27.1132 24.771 26.8119L24.8666 26.7457C25.0485 26.8725 25.7964 27.0158 26.0095 27.0103L25.9581 27.24C25.7743 27.1647 25.3811 27.0912 25.1257 27.071C25.1679 27.308 25.3517 27.8703 25.4675 28.0301L25.2782 28.1882Z" fill="white" stroke="black" stroke-width="0.0882" stroke-linejoin="round"/>
<path d="M24.4364 28.6619V28.3705C24.5903 28.3965 24.783 28.3547 24.9834 28.2518C25.1837 28.1489 25.38 27.991 25.5403 27.8035C25.7007 27.6161 25.8157 27.4102 25.8668 27.2191C25.9179 27.0281 25.902 26.8631 25.8218 26.751C25.7416 26.6388 25.6017 26.586 25.4248 26.6011C25.2479 26.6163 25.0444 26.6985 24.8472 26.8344C24.65 26.9703 24.4707 27.152 24.3383 27.3499C24.206 27.5479 24.1283 27.7507 24.1179 27.9253L24.3636 28.1312L24.1099 28.385L23.8262 28.1011C23.8655 27.8363 23.9606 27.5758 24.105 27.3371C24.2495 27.0984 24.4399 26.887 24.6633 26.7174C24.8868 26.5477 25.1382 26.4236 25.4005 26.3535C25.6628 26.2835 25.9298 26.269 26.1837 26.3112C26.2253 26.5616 26.2118 26.8249 26.1441 27.0838C26.0765 27.3428 25.9561 27.5914 25.7911 27.8135C25.626 28.0355 25.42 28.2259 25.1865 28.3722C24.953 28.5184 24.6974 28.6171 24.4364 28.6619Z" fill="white" stroke="black" stroke-width="0.0882" stroke-linejoin="round"/>
<path d="M14.5583 27.4202C14.7622 27.264 15.1499 26.8653 15.3851 26.5731L15.6038 26.7091C15.3043 26.9682 14.889 27.3522 14.6593 27.626L14.5583 27.4202ZM14.7438 27.7601C15.1132 27.6517 15.8188 27.4441 16.1201 27.253L16.1863 27.3485C16.0595 27.5304 15.9162 28.2783 15.9217 28.4915L15.692 28.44C15.7673 28.2563 15.8408 27.863 15.861 27.6076C15.624 27.6499 15.0617 27.8336 14.9019 27.9494L14.7438 27.7601Z" fill="white" stroke="black" stroke-width="0.0882" stroke-linejoin="round"/>
<path d="M14.2701 26.9183H14.5615C14.5355 27.0722 14.5773 27.2649 14.6802 27.4653C14.7831 27.6657 14.941 27.8619 15.1285 28.0223C15.3159 28.1826 15.5218 28.2977 15.7129 28.3487C15.9039 28.3998 16.0689 28.384 16.181 28.3038C16.2932 28.2235 16.346 28.0836 16.3309 27.9067C16.3157 27.7298 16.2335 27.5263 16.0976 27.3291C15.9617 27.1319 15.7801 26.9526 15.5821 26.8203C15.3841 26.6879 15.1813 26.6102 15.0067 26.5999L14.8008 26.8456L14.547 26.5918L14.8309 26.3081C15.0957 26.3474 15.3562 26.4426 15.5949 26.587C15.8336 26.7314 16.045 26.9218 16.2147 27.1453C16.3843 27.3688 16.5084 27.6201 16.5785 27.8824C16.6485 28.1447 16.663 28.4118 16.6208 28.6656C16.3704 28.7072 16.1071 28.6937 15.8482 28.6261C15.5893 28.5584 15.3406 28.4381 15.1185 28.273C14.8965 28.108 14.7061 27.9019 14.5598 27.6684C14.4136 27.4349 14.3149 27.1793 14.2701 26.9183Z" fill="white" stroke="black" stroke-width="0.0882" stroke-linejoin="round"/>
<path d="M15.5118 17.0402C15.668 17.2442 16.0667 17.6319 16.3589 17.8671L16.2229 18.0857C15.9638 17.7862 15.5798 17.3709 15.306 17.1413L15.5118 17.0402ZM15.1719 17.2258C15.2803 17.5951 15.4879 18.3007 15.679 18.6021L15.5835 18.6682C15.4016 18.5414 14.6537 18.3981 14.4406 18.4036L14.492 18.1739C14.6758 18.2493 15.069 18.3228 15.3244 18.343C15.2821 18.1059 15.0984 17.5437 14.9826 17.3838L15.1719 17.2258Z" fill="white" stroke="black" stroke-width="0.0882" stroke-linejoin="round"/>
<path d="M16.0137 16.752V17.0434C15.8598 17.0174 15.6671 17.0592 15.4667 17.1621C15.2663 17.265 15.0701 17.423 14.9097 17.6104C14.7494 17.7979 14.6344 18.0038 14.5833 18.1948C14.5322 18.3859 14.548 18.5508 14.6283 18.663C14.7085 18.7751 14.8484 18.8279 15.0253 18.8128C15.2022 18.7977 15.4057 18.7155 15.6029 18.5796C15.8001 18.4437 15.9794 18.262 16.1117 18.064C16.2441 17.866 16.3218 17.6633 16.3321 17.4887L16.0865 17.2827L16.3402 17.0289L16.6239 17.3128C16.5846 17.5776 16.4895 17.8381 16.345 18.0769C16.2006 18.3156 16.0102 18.5269 15.7867 18.6966C15.5632 18.8663 15.3119 18.9903 15.0496 19.0604C14.7873 19.1305 14.5202 19.1449 14.2664 19.1027C14.2248 18.8523 14.2383 18.589 14.3059 18.3301C14.3736 18.0712 14.4939 17.8225 14.659 17.6005C14.824 17.3784 15.0301 17.188 15.2636 17.0418C15.4971 16.8955 15.7527 16.7968 16.0137 16.752Z" fill="white" stroke="black" stroke-width="0.0882" stroke-linejoin="round"/>
<path d="M15.5559 25.9961C15.4236 25.7646 15.249 25.4687 15.1535 25.3915C15.2123 25.3511 15.2913 25.2923 15.3317 25.2813C15.3299 25.4283 15.5522 25.7333 15.5522 25.7333L15.8793 25.5183C15.7874 25.3768 15.7066 25.2684 15.6404 25.2262C15.7213 25.1674 15.8076 25.1178 15.8315 25.1122C15.8334 25.1839 15.8756 25.3033 16.0006 25.4503C16.0006 25.4503 16.3056 25.2886 16.4048 25.1637L16.5335 25.3732C16.3901 25.4007 15.747 25.8013 15.5559 25.9961ZM15.102 23.2086C14.7584 23.2711 14.5839 23.5632 14.6427 23.8921C14.7015 24.2247 14.9991 24.4526 15.3262 24.3975C15.6533 24.3405 15.8389 24.0391 15.7764 23.69C15.7139 23.3409 15.4457 23.1461 15.102 23.2086ZM15.1517 23.407C15.4273 23.3574 15.6588 23.4916 15.6974 23.7047C15.736 23.9179 15.5651 24.1292 15.2876 24.1788C15.0102 24.2284 14.7897 24.052 14.7584 23.8738C14.7254 23.6919 14.8742 23.4567 15.1517 23.407ZM15.8242 21.3858C15.7103 21.5659 15.4585 21.7312 15.2362 21.8838C15.2049 21.7257 15.0873 21.6247 14.9514 21.6155C14.8062 21.6081 14.6574 21.7239 14.6316 21.8011C14.5949 21.9076 14.549 22.3652 14.549 22.3652C14.8356 22.3431 15.4622 22.3927 15.6772 22.4718L15.7029 22.2292C15.5614 22.266 15.2417 22.1998 15.2417 22.1998L15.249 22.0932L15.5798 21.8323C15.6221 21.7992 15.8701 21.5677 15.8775 21.4023C15.8793 21.3509 15.8352 21.3637 15.8242 21.3858ZM15.1608 22.1961C15.0304 22.1998 14.7584 22.1851 14.6831 22.152C14.7125 21.8893 14.7933 21.7956 14.933 21.8084C15.0616 21.8213 15.1976 21.8948 15.1608 22.1961ZM16.414 18.9401C16.1641 18.9603 15.8517 19.1955 15.8591 19.3976C15.8609 19.5042 15.8977 19.6512 16.0392 19.7578C16.1788 19.8643 16.324 19.8956 16.4397 19.8735C16.5518 19.8533 16.7374 19.6971 16.7356 19.6108C16.7356 19.5262 16.5371 19.291 16.4122 19.291L16.6198 19.0687C16.6731 19.1973 16.8863 19.3848 16.9653 19.4086C16.8752 19.6236 16.7631 19.8478 16.5279 19.9562C16.2927 20.0665 16.0484 20.061 15.826 19.8515C15.6165 19.653 15.6974 19.2708 15.8297 19.122C15.9749 18.9585 16.245 18.8886 16.2505 18.7618L16.414 18.9401ZM17.5863 17.7034L17.6304 18.5377C17.6304 18.5377 17.647 18.8335 17.579 19.0173L17.8381 18.8353C17.737 18.7545 17.7572 18.5064 17.7572 18.5064L18.1762 18.2823C18.1762 18.2823 18.3746 18.409 18.3544 18.5634L18.7109 18.4182C18.5033 18.3392 18.246 18.1573 18.246 18.1573L17.5863 17.7034ZM17.7205 17.9625L18.1027 18.2161L17.7297 18.4164L17.7205 17.9625ZM19.5911 17.0916C19.5433 17.2955 19.5947 17.6979 19.6701 18.0324C19.9292 18.0085 20.1276 17.9827 20.2158 17.8725L20.2397 18.1481C19.9843 18.1481 19.7031 18.1775 19.4459 18.2179C19.4496 17.8413 19.411 17.347 19.3044 17.1338L19.5911 17.0916ZM21.537 17.2147C21.4175 17.3874 21.3183 17.7806 21.2669 18.1187C21.5168 18.1922 21.7115 18.24 21.8346 18.1683L21.7556 18.4348C21.5186 18.3429 21.2448 18.2657 20.9912 18.2088C21.1309 17.8615 21.276 17.3856 21.2558 17.1504L21.537 17.2147ZM23.5049 18.1059L22.7773 18.5193C22.7773 18.5193 22.52 18.6681 22.3253 18.6902L22.6027 18.8372C22.6303 18.7122 22.8618 18.6185 22.8618 18.6185L23.2514 18.8923C23.2514 18.8923 23.2256 19.1293 23.0786 19.179L23.3671 19.4325C23.3469 19.212 23.3928 18.8978 23.3928 18.8978L23.5049 18.1059ZM23.3322 18.3411L23.2752 18.7986L22.928 18.5542L23.3322 18.3411ZM23.8908 20.0536L23.7769 19.8386C23.9643 19.8239 24.5284 19.4932 24.7875 19.3241L24.8279 19.3976L24.5854 20.5056C24.8022 20.4193 25.1458 20.2392 25.2395 20.14L25.3682 20.3844C25.1274 20.3494 24.6809 20.5699 24.3428 20.7757L24.3098 20.7169L24.5174 19.6383C24.5174 19.6383 23.957 19.8919 23.8908 20.0536ZM25.5997 21.6559C25.5776 21.4924 25.574 21.3803 25.4949 21.3435L25.4858 21.2755L25.686 21.2425C25.7687 21.4575 25.8624 22.0565 25.8496 22.2108L25.6438 22.2439L25.6346 22.1869C25.7026 22.1098 25.6346 21.8268 25.6346 21.8268C25.3296 21.858 24.7985 21.9444 24.7232 22.0491L24.6754 21.7662C24.7838 21.8029 25.3185 21.7459 25.5997 21.6559ZM24.6129 24.0888C24.7269 23.9087 24.9823 23.7451 25.2046 23.5945C25.2359 23.7525 25.3516 23.8554 25.4894 23.8627C25.6346 23.8719 25.7834 23.7598 25.8092 23.6808C25.8477 23.5743 25.8955 23.1186 25.8955 23.1186C25.6089 23.1369 24.9841 23.0836 24.7691 23.0028L24.7416 23.2453C24.8831 23.2104 25.2028 23.2766 25.2028 23.2766L25.1954 23.3832L24.8628 23.6422C24.8187 23.6753 24.5688 23.905 24.5597 24.0704C24.5578 24.1218 24.6019 24.1071 24.6129 24.0888ZM25.2836 23.2821C25.4141 23.2803 25.686 23.2968 25.7614 23.3299C25.7301 23.5926 25.6475 23.6863 25.5078 23.6716C25.3792 23.6569 25.245 23.5834 25.2836 23.2821ZM24.2436 24.8182L24.0727 25.1122C24.205 25.092 24.3888 25.1968 24.5376 25.2942C24.5872 25.4265 24.782 25.7646 24.7673 26.0953L24.9878 25.7168C24.8904 25.6727 24.7765 25.6249 24.703 25.2703C24.9933 25.1619 25.2101 25.1269 25.302 25.1784L25.4968 24.8476C25.2708 24.9836 24.7397 25.1233 24.6515 25.0939C24.5597 25.0406 24.2987 24.9597 24.2436 24.8182Z" fill="black"/>
<path d="M22.9353 27.2749C23.0621 27.2749 23.1649 27.1721 23.1649 27.0452C23.1649 26.9184 23.0621 26.8156 22.9353 26.8156C22.8084 26.8156 22.7056 26.9184 22.7056 27.0452C22.7056 27.1721 22.8084 27.2749 22.9353 27.2749Z" fill="black"/>
<path d="M17.5147 27.2749C17.6416 27.2749 17.7444 27.1721 17.7444 27.0452C17.7444 26.9184 17.6416 26.8156 17.5147 26.8156C17.3879 26.8156 17.285 26.9184 17.285 27.0452C17.285 27.1721 17.3879 27.2749 17.5147 27.2749Z" fill="black"/>
<path d="M20.5833 28.312C20.5595 28.3285 20.4951 28.2954 20.4804 28.244C20.4804 28.2605 20.4768 28.312 20.4455 28.3414C20.3702 28.413 20.2893 28.3781 20.225 28.3781C20.1607 28.3781 20.0799 28.413 20.0045 28.3414C19.9733 28.312 19.9696 28.2605 19.9696 28.244C19.9549 28.2954 19.8906 28.3285 19.8667 28.312C19.8447 28.2954 19.8557 28.2238 19.8998 28.1944C19.8851 28.198 19.8336 28.2109 19.7969 28.1907C19.705 28.1411 19.7142 28.0529 19.694 27.9922C19.6738 27.9316 19.615 27.8655 19.6609 27.7717C19.6793 27.7332 19.7271 27.7129 19.7418 27.7074C19.6885 27.7093 19.6389 27.6578 19.6462 27.6321C19.6554 27.6045 19.7271 27.5935 19.7693 27.6266C19.7583 27.6137 19.7326 27.5696 19.7399 27.5274C19.7583 27.4245 19.8447 27.4061 19.8961 27.3675C19.9494 27.3289 19.9935 27.2536 20.0964 27.2683C20.1387 27.2738 20.1717 27.3124 20.1828 27.3252C20.1644 27.2756 20.1975 27.2113 20.225 27.2113C20.2526 27.2113 20.2857 27.2756 20.2673 27.3252C20.2783 27.3124 20.3114 27.2738 20.3537 27.2683C20.4566 27.2536 20.5007 27.3289 20.5539 27.3675C20.6054 27.4061 20.6918 27.4245 20.7101 27.5274C20.7175 27.5696 20.6918 27.6137 20.6807 27.6266C20.723 27.5935 20.7947 27.6045 20.8038 27.6321C20.8112 27.6578 20.7616 27.7093 20.7083 27.7074C20.723 27.7129 20.7708 27.7332 20.7891 27.7717C20.8351 27.8655 20.7763 27.9316 20.7561 27.9922C20.7359 28.0529 20.745 28.1411 20.6532 28.1907C20.6164 28.2109 20.565 28.198 20.5503 28.1944C20.5944 28.2238 20.6054 28.2954 20.5833 28.312ZM20.0541 28.0547C20.0835 28.0768 20.0045 28.1429 20.0358 28.2256C20.0707 28.323 20.1681 28.2936 20.225 28.2936C20.282 28.2936 20.3794 28.323 20.4143 28.2256C20.4455 28.1429 20.3665 28.0768 20.3959 28.0547C20.4253 28.0327 20.4657 28.1282 20.5521 28.1264C20.6568 28.1209 20.6587 28.0216 20.6752 27.9665C20.6936 27.9114 20.7524 27.8287 20.6697 27.7644C20.6017 27.7093 20.5117 27.7644 20.5007 27.7295C20.4896 27.6946 20.5925 27.6872 20.6183 27.6027C20.6458 27.5016 20.5503 27.4704 20.5043 27.4355C20.4566 27.4024 20.3959 27.3216 20.3096 27.3785C20.2379 27.4281 20.2618 27.5292 20.225 27.5292C20.1883 27.5292 20.2122 27.4281 20.1405 27.3785C20.0541 27.3216 19.9935 27.4024 19.9457 27.4355C19.8998 27.4704 19.8042 27.5016 19.8318 27.6027C19.8575 27.6872 19.9604 27.6946 19.9494 27.7295C19.9384 27.7644 19.8483 27.7093 19.7804 27.7644C19.6977 27.8287 19.7565 27.9114 19.7748 27.9665C19.7914 28.0216 19.7932 28.1209 19.898 28.1264C19.9843 28.1282 20.0247 28.0327 20.0541 28.0547Z" fill="black"/>
<path d="M20.225 28.1852C20.2085 28.1852 20.1883 28.1466 20.1993 28.1154C20.1938 28.1246 20.1736 28.1466 20.1478 28.1503C20.0854 28.1595 20.0596 28.1136 20.0284 28.0915C19.9972 28.0676 19.9457 28.0566 19.9347 27.996C19.9292 27.9702 19.9457 27.9427 19.9512 27.9353C19.9255 27.9555 19.8832 27.9482 19.8777 27.9316C19.8722 27.9169 19.9035 27.8857 19.9347 27.8857C19.9255 27.8839 19.8979 27.871 19.8869 27.849C19.8594 27.792 19.8943 27.7534 19.9071 27.7167C19.9182 27.6799 19.9126 27.6266 19.9678 27.5972C19.9898 27.5844 20.0211 27.5917 20.0302 27.5954C20.0027 27.577 19.9972 27.5347 20.01 27.5237C20.0247 27.5145 20.0633 27.5347 20.0725 27.5641C20.0725 27.555 20.0743 27.5237 20.0927 27.5072C20.1387 27.4631 20.1864 27.4851 20.225 27.4851C20.2636 27.4851 20.3114 27.4631 20.3573 27.5072C20.3757 27.5237 20.3775 27.555 20.3775 27.5641C20.3867 27.5347 20.4253 27.5145 20.44 27.5237C20.4529 27.5347 20.4474 27.577 20.4198 27.5954C20.429 27.5917 20.4602 27.5844 20.4823 27.5972C20.5374 27.6266 20.5319 27.6799 20.5429 27.7167C20.5558 27.7534 20.5907 27.792 20.5631 27.849C20.5521 27.871 20.5245 27.8839 20.5153 27.8857C20.5466 27.8857 20.5778 27.9169 20.5723 27.9316C20.5668 27.9482 20.5245 27.9555 20.4988 27.9353C20.5043 27.9427 20.5209 27.9702 20.5153 27.996C20.5043 28.0566 20.4529 28.0676 20.4216 28.0915C20.3904 28.1136 20.3647 28.1595 20.3022 28.1503C20.2765 28.1466 20.2563 28.1246 20.2507 28.1154C20.2618 28.1466 20.2416 28.1852 20.225 28.1852ZM20.225 27.9757C20.2452 27.9757 20.2324 28.0309 20.271 28.0566C20.3169 28.0878 20.35 28.0456 20.3757 28.0272C20.4014 28.0088 20.4529 27.9904 20.4363 27.9372C20.4235 27.8912 20.3683 27.8875 20.3739 27.8673C20.3794 27.849 20.4271 27.8784 20.4657 27.849C20.5098 27.814 20.4786 27.7699 20.4694 27.7405C20.4584 27.7111 20.4584 27.656 20.4014 27.6542C20.3536 27.6523 20.3334 27.7038 20.3169 27.6928C20.3004 27.6817 20.3445 27.645 20.3279 27.6009C20.3077 27.5476 20.2563 27.5641 20.225 27.5641C20.1938 27.5641 20.1423 27.5476 20.1221 27.6009C20.1056 27.645 20.1497 27.6817 20.1331 27.6928C20.1166 27.7038 20.0964 27.6523 20.0486 27.6542C19.9917 27.656 19.9917 27.7111 19.9806 27.7405C19.9714 27.7699 19.9402 27.814 19.9843 27.849C20.0229 27.8784 20.0707 27.849 20.0762 27.8673C20.0817 27.8875 20.0266 27.8912 20.0137 27.9372C19.9972 27.9904 20.0486 28.0088 20.0743 28.0272C20.1001 28.0456 20.1331 28.0878 20.1791 28.0566C20.2177 28.0309 20.2048 27.9757 20.225 27.9757Z" fill="black"/>
<path d="M20.225 27.9077C20.2738 27.9077 20.3132 27.8682 20.3132 27.8195C20.3132 27.7708 20.2738 27.7313 20.225 27.7313C20.1763 27.7313 20.1368 27.7708 20.1368 27.8195C20.1368 27.8682 20.1763 27.9077 20.225 27.9077Z" fill="black"/>
<path d="M17.2374 25.8569C19.2366 25.7752 21.2383 25.7752 23.2374 25.8569" stroke="black" stroke-width="0.0875" stroke-linecap="round" stroke-linejoin="round"/>
<path d="M20 20.5444L20.1625 20.7319M20.4125 23.1319C20.4042 23.2986 20.4125 23.4319 20.4375 23.5319M20.0375 23.1569C20.0875 23.2194 20.1625 23.4444 20.1625 23.5319" stroke="black" stroke-width="0.05" stroke-linecap="round" stroke-linejoin="round"/>
<path d="M21.275 25.832C21.2 25.857 21.075 25.932 21.075 25.9945C21.075 26.057 21.225 26.0695 21.275 26.082C21.1875 26.107 20.9375 26.157 20.825 26.107C20.75 26.1445 20.175 26.0195 20.05 26.0195C19.975 26.0195 19.875 25.9445 19.8875 25.807C19.8875 25.782 19.9125 25.707 19.975 25.682C19.9375 25.607 20.1125 25.4945 20.2875 25.382C20.0375 25.4195 19.7 25.3195 19.6125 25.2195C19.4125 25.1445 19.325 25.2195 19.2375 25.3945C19.2375 25.6945 19.075 25.8445 18.8625 25.8195C18.7375 25.7945 18.7 25.857 18.6625 25.882L19.075 26.007C19.35 26.257 19.2 26.457 19.1375 26.507C19.075 26.557 18.925 26.5195 18.8375 26.5195C18.7375 26.5195 18.7375 26.557 18.7125 26.5695C18.6292 26.6111 18.575 26.6195 18.55 26.5945C18.55 26.557 18.5875 26.382 18.7 26.357C18.7625 26.357 18.8875 26.3195 18.8875 26.257C18.8875 26.1945 18.6625 26.207 18.4875 26.1445C18.35 26.0945 18.3 26.0195 18.35 25.782C18.3875 25.532 18.6875 25.4945 18.8375 25.4945C18.8125 25.3945 18.8375 25.207 18.9625 25.082C19.1625 24.8945 19.4625 24.957 19.725 24.982C19.875 24.8945 20.15 24.7695 20.425 24.757C20.675 24.757 21.75 24.4695 22.2375 24.532C22.1125 24.3695 22.15 23.982 22.35 23.8695C22.6 23.7195 22.875 24.1195 22.95 24.0445C23.025 23.9695 22.8625 23.8695 22.675 23.6695C22.625 23.5945 22.6375 23.5945 22.6375 23.5695C22.6375 23.5028 22.65 23.4528 22.675 23.4195C22.7 23.407 22.85 23.457 22.8875 23.5195C22.9458 23.6028 23 23.6237 23.05 23.582C23.1125 23.532 23.025 23.557 22.9875 23.457C22.975 23.3945 22.925 23.3445 22.9375 23.2945C23.0189 23.2091 23.1167 23.1411 23.225 23.0945C23.2667 23.1528 23.3042 23.207 23.3375 23.257C23.425 23.3945 23.5125 23.357 23.575 23.457C23.575 23.507 23.5958 23.5778 23.6375 23.6695C23.7427 23.8542 23.8933 24.0091 24.075 24.1195C24.1167 24.1445 24.1417 24.1737 24.15 24.207C24.15 24.2653 24.1333 24.307 24.1 24.332C24.075 24.357 23.975 24.357 23.9 24.3195C23.7833 24.2528 23.6958 24.2236 23.6375 24.232C23.4625 24.257 23.35 24.532 23.1 24.532C22.875 24.507 22.725 24.1695 22.5875 24.2695C22.45 24.3695 22.9 24.6445 22.8375 24.7695C22.8875 24.7945 22.95 24.8945 22.925 24.982C23.0249 24.9618 23.1197 24.9215 23.2035 24.8635C23.2873 24.8054 23.3584 24.7309 23.4125 24.6445C23.5375 24.4778 23.6292 24.3861 23.6875 24.3695C23.7625 24.332 23.85 24.3695 23.85 24.432L23.9625 24.4695C24.0125 24.5111 24.0208 24.5528 23.9875 24.5945L23.9125 24.5445C23.8708 24.5445 23.8208 24.5695 23.7625 24.6195C23.7208 24.6861 23.6708 24.757 23.6125 24.832L23.3625 25.107C23.3875 25.1736 23.3958 25.2361 23.3875 25.2945C23.4125 25.2945 23.4417 25.3028 23.475 25.3195C23.4917 25.3278 23.4917 25.357 23.475 25.407C23.475 25.4695 23.225 25.7445 23.175 25.732C23.075 25.732 23 25.607 23.0125 25.5695C22.9 25.6195 22.85 25.4945 22.85 25.4445C22.7712 25.524 22.6778 25.5877 22.575 25.632C22.525 25.657 22.4917 25.6403 22.475 25.582C22.4625 25.632 22.3125 25.682 22.275 25.6945C22.0875 25.732 21.8875 25.8195 21.7 25.8195L21.225 25.807L21.275 25.832Z" fill="white" stroke="black" stroke-width="0.0625" stroke-linecap="round" stroke-linejoin="round"/>
<path d="M21.9375 24.0569C21.9375 24.1319 21.825 24.3069 21.9875 24.4569C22.0875 24.5319 22.25 24.5944 22.3 24.7069C22.35 24.7944 22.2875 24.8694 22.2625 24.8694C22.1625 24.8444 22.025 25.0194 21.975 25.1444C21.925 24.9694 21.8125 25.0194 21.6625 25.0444C21.6875 24.8528 21.5792 24.7444 21.3375 24.7194C21.375 24.6819 21.3125 24.6319 21.2625 24.5819C21.2125 24.5319 21.0375 24.5694 21.0125 24.5319C21.0125 24.4944 21.1 24.4069 21.05 24.3444C21 24.2569 20.8 24.3069 20.725 24.2819C20.75 24.1986 20.7417 24.1153 20.7 24.0319C20.6375 23.9069 20.425 23.9694 20.3125 23.9444C20.4042 23.8778 20.4292 23.7903 20.3875 23.6819C20.3375 23.5569 20.0875 23.6944 20.0875 23.5569C20.1 23.4944 20.3875 23.4569 20.5 23.4444C20.6125 23.4319 20.9625 23.5319 21.3125 23.6069C21.3875 23.6819 21.9375 23.8444 21.9375 24.0569Z" fill="white" stroke="black" stroke-width="0.0375" stroke-linecap="round" stroke-linejoin="round"/>
<path d="M22.85 25.4569C23.0347 25.362 23.2068 25.2444 23.3625 25.1069M20.1625 24.9819C20.3125 24.9819 20.65 25.0319 20.75 25.1569C20.8375 25.2819 20.9 25.4944 20.2375 25.6569C20.4375 25.6569 20.7375 25.6194 20.8375 25.6444C20.9375 25.6194 21.15 25.5569 21.2375 25.5819C21.2 25.5944 21.0875 25.6319 21.0875 25.7069C21.0875 25.7486 21.1333 25.7819 21.225 25.8069M21.8625 25.3569C22.1 25.4069 22.4375 25.3319 22.4875 25.5819" stroke="black" stroke-width="0.0625" stroke-linecap="round" stroke-linejoin="round"/>
<path d="M22.65 23.4819C22.7125 23.5569 22.9 23.6694 22.9875 23.7319C23.1125 23.8319 23.1625 23.7194 23.075 23.5569" stroke="black" stroke-width="0.05" stroke-linecap="round" stroke-linejoin="round"/>
<path d="M21.0125 24.5319C21.263 24.4768 21.5185 24.4474 21.775 24.4444M20.725 24.2819C21.1 24.1819 21.5 24.2194 21.75 24.2194M21.6875 25.0194L22.0125 24.7069M21.3375 24.7069C21.4625 24.6694 21.6625 24.5819 21.8375 24.5569M21.3125 23.6069C21.5125 23.4194 21.7375 23.4444 21.9625 23.3319C22.0875 23.2569 22.2125 23.0819 22.3375 22.9444C22.3875 22.8861 22.4708 22.8569 22.5875 22.8569C22.7708 22.8819 22.7667 22.9111 22.575 22.9444C22.425 22.9694 22.4125 23.0319 22.3625 23.1444C22.3125 23.2444 22.3625 23.3569 22.3875 23.4319L22.2875 23.7069C22.2875 23.7403 22.3083 23.7861 22.35 23.8444M20.3125 23.9444C20.8125 23.8319 21.5625 24.0319 21.7 24.0319" stroke="black" stroke-width="0.0375" stroke-linecap="round" stroke-linejoin="round"/>
<path d="M23.4625 24.7569C23.625 24.6694 23.625 24.5069 23.8375 24.4319M23.0125 25.5694C23.225 25.4694 23.2625 25.3819 23.3875 25.2944M23.5375 23.9569C23.4375 23.9819 23.4125 23.8944 23.325 23.8819C23.2125 23.8569 23.15 23.9319 23.15 23.9944C23.15 24.0569 23.2125 24.1194 23.275 24.1194C23.3375 24.1194 23.4 24.0819 23.5375 24.0944M23.0625 23.1944C23.1458 23.2111 23.2166 23.2028 23.275 23.1694M23.5 23.5819C23.4666 23.5819 23.4333 23.5694 23.4 23.5444C23.3666 23.4944 23.3625 23.4611 23.3875 23.4444C23.3958 23.4194 23.425 23.4278 23.475 23.4694C23.55 23.5319 23.5125 23.5569 23.5 23.5819Z" stroke="black" stroke-width="0.025" stroke-linecap="round" stroke-linejoin="round"/>
<path d="M20.3374 21.4694C20.3322 21.467 20.3269 21.462 20.3222 21.4551C20.3175 21.4482 20.3137 21.4396 20.311 21.4304C20.3084 21.4211 20.3071 21.4117 20.3074 21.4031C20.3076 21.3945 20.3094 21.3871 20.3124 21.3819C20.3072 21.3797 20.302 21.375 20.2973 21.3682C20.2927 21.3614 20.2888 21.3529 20.2861 21.3436C20.2835 21.3344 20.2822 21.3248 20.2824 21.3161C20.2827 21.3074 20.2844 21.2998 20.2874 21.2944C20.2823 21.2925 20.277 21.288 20.2724 21.2813C20.2677 21.2747 20.2639 21.2662 20.2612 21.2569C20.2586 21.2477 20.2573 21.238 20.2575 21.2291C20.2577 21.2203 20.2594 21.2125 20.2624 21.2069C20.2577 21.2027 20.2534 21.1964 20.2498 21.1887C20.2463 21.181 20.2438 21.1721 20.2425 21.1631C20.2412 21.154 20.2412 21.1452 20.2425 21.1375C20.2438 21.1298 20.2464 21.1235 20.2499 21.1194C20.2448 21.1184 20.2396 21.1146 20.2349 21.1084C20.2302 21.1022 20.2263 21.0939 20.2236 21.0845C20.2209 21.0751 20.2196 21.0651 20.2198 21.0558C20.2201 21.0464 20.2218 21.0381 20.2249 21.0319C20.2203 21.0283 20.2161 21.0225 20.2127 21.0151C20.2093 21.0078 20.2068 20.9991 20.2055 20.9901C20.2042 20.9811 20.2042 20.9721 20.2054 20.9641C20.2066 20.956 20.209 20.9492 20.2124 20.9444C20.2091 20.9448 20.2057 20.944 20.2024 20.9419C20.199 20.9397 20.1958 20.9364 20.1929 20.9321C20.1871 20.9233 20.1828 20.9109 20.1812 20.8977C20.1795 20.8844 20.1806 20.8714 20.1841 20.8614C20.1876 20.8514 20.1933 20.8453 20.1999 20.8444C20.1954 20.8415 20.1912 20.8362 20.1877 20.8292C20.1843 20.8222 20.1818 20.8138 20.1806 20.8047C20.1793 20.7957 20.1792 20.7865 20.1804 20.778C20.1816 20.7696 20.1841 20.7623 20.1874 20.7569C20.1828 20.7545 20.1786 20.7497 20.1751 20.7429C20.1717 20.7362 20.1691 20.7278 20.1678 20.7187C20.1665 20.7097 20.1665 20.7002 20.1678 20.6915C20.169 20.6828 20.1715 20.6751 20.1749 20.6694C20.1683 20.6691 20.1619 20.6635 20.1572 20.6538C20.1525 20.6442 20.1499 20.6314 20.1499 20.6181C20.1499 20.6048 20.1525 20.5923 20.1572 20.5831C20.1619 20.574 20.1683 20.5691 20.1749 20.5694C20.1701 20.5683 20.1656 20.5645 20.1619 20.5583C20.1582 20.5521 20.1555 20.5439 20.1542 20.5346C20.1529 20.5253 20.153 20.5154 20.1544 20.506C20.1559 20.4966 20.1587 20.4883 20.1624 20.4819C20.1591 20.4826 20.1558 20.482 20.1527 20.4801C20.1496 20.4782 20.1468 20.4751 20.1445 20.4709C20.1397 20.4625 20.1371 20.4504 20.1371 20.4371C20.1371 20.4239 20.1397 20.4106 20.1445 20.4002C20.1492 20.3899 20.1557 20.3833 20.1624 20.3819C20.1556 20.384 20.149 20.3807 20.1442 20.3728C20.1393 20.3649 20.1366 20.353 20.1366 20.3397C20.1366 20.3264 20.1393 20.3129 20.1442 20.3021C20.149 20.2912 20.1556 20.284 20.1624 20.2819C20.159 20.2773 20.1566 20.2707 20.1553 20.2628C20.1541 20.2548 20.1541 20.2459 20.1554 20.2369C20.1567 20.2279 20.1592 20.2192 20.1626 20.2117C20.1661 20.2042 20.1703 20.1982 20.1749 20.1944C20.1684 20.192 20.1635 20.1845 20.1613 20.1734C20.1591 20.1624 20.1597 20.1487 20.163 20.1355C20.1663 20.1222 20.1721 20.1104 20.179 20.1027C20.1859 20.095 20.1934 20.092 20.1999 20.0944C20.196 20.0913 20.193 20.0858 20.1915 20.0786C20.1899 20.0714 20.1898 20.0627 20.1911 20.0535C20.1924 20.0444 20.1951 20.0351 20.1989 20.0269C20.2026 20.0186 20.2073 20.0117 20.2124 20.0069C20.2052 20.0069 20.1996 20.0017 20.1969 19.9923C20.1941 19.9829 20.1944 19.9702 20.1977 19.957C20.2011 19.9437 20.2071 19.931 20.2145 19.9216C20.222 19.9122 20.2302 19.9069 20.2374 19.9069C20.2341 19.9019 20.2326 19.8943 20.2331 19.8852C20.2336 19.876 20.2361 19.8659 20.2403 19.8562C20.2445 19.8464 20.2501 19.8376 20.2563 19.831C20.2625 19.8244 20.269 19.8203 20.2749 19.8194C20.2709 19.8155 20.2689 19.8087 20.269 19.8002C20.2692 19.7916 20.2716 19.7816 20.2758 19.7718C20.28 19.762 20.2858 19.7528 20.2924 19.7456C20.299 19.7384 20.306 19.7336 20.3124 19.7319C20.3072 19.7295 20.304 19.7238 20.3035 19.7157C20.3029 19.7075 20.305 19.6975 20.3094 19.6873C20.3138 19.677 20.3202 19.6672 20.3276 19.6594C20.335 19.6516 20.3428 19.6463 20.3499 19.6444C20.3442 19.6401 20.3421 19.6314 20.3439 19.6201C20.3457 19.6088 20.3514 19.596 20.3597 19.5844C20.368 19.5728 20.3782 19.5634 20.3881 19.5582C20.398 19.5531 20.4067 19.5526 20.4124 19.5569C20.4055 19.554 20.4022 19.5467 20.4032 19.5364C20.4043 19.5262 20.4095 19.5139 20.4178 19.5023C20.426 19.4907 20.4367 19.4807 20.4474 19.4746C20.4582 19.4684 20.468 19.4665 20.4749 19.4694C20.4705 19.4654 20.4692 19.4585 20.4712 19.4499C20.4733 19.4413 20.4785 19.4316 20.4861 19.4225C20.4936 19.4135 20.503 19.4057 20.5124 19.4005C20.5218 19.3953 20.5307 19.3932 20.5374 19.3944C20.5291 19.3916 20.5251 19.3844 20.5262 19.3742C20.5273 19.364 20.5336 19.3518 20.5435 19.3402C20.5535 19.3286 20.5663 19.3186 20.5792 19.3123C20.5921 19.3061 20.6041 19.3041 20.6124 19.3069" fill="white"/>
<path d="M20.3374 21.4694C20.3322 21.467 20.3269 21.462 20.3222 21.4551C20.3175 21.4482 20.3137 21.4396 20.311 21.4304C20.3084 21.4211 20.3071 21.4117 20.3074 21.4031C20.3076 21.3945 20.3094 21.3871 20.3124 21.3819C20.3072 21.3797 20.302 21.375 20.2973 21.3682C20.2927 21.3614 20.2888 21.3529 20.2861 21.3436C20.2835 21.3344 20.2822 21.3248 20.2824 21.3161C20.2827 21.3074 20.2844 21.2998 20.2874 21.2944C20.2823 21.2925 20.277 21.288 20.2724 21.2813C20.2677 21.2747 20.2639 21.2662 20.2612 21.2569C20.2586 21.2477 20.2573 21.238 20.2575 21.2291C20.2577 21.2203 20.2594 21.2125 20.2624 21.2069C20.2577 21.2027 20.2534 21.1964 20.2498 21.1887C20.2463 21.181 20.2438 21.1721 20.2425 21.1631C20.2412 21.154 20.2412 21.1452 20.2425 21.1375C20.2438 21.1298 20.2464 21.1235 20.2499 21.1194C20.2448 21.1184 20.2396 21.1146 20.2349 21.1084C20.2302 21.1022 20.2263 21.0939 20.2236 21.0845C20.2209 21.0751 20.2196 21.0651 20.2198 21.0558C20.2201 21.0464 20.2218 21.0381 20.2249 21.0319C20.2203 21.0283 20.2161 21.0225 20.2127 21.0151C20.2093 21.0078 20.2068 20.9991 20.2055 20.9901C20.2042 20.9811 20.2042 20.9721 20.2054 20.9641C20.2066 20.956 20.209 20.9492 20.2124 20.9444C20.2091 20.9448 20.2057 20.944 20.2024 20.9419C20.199 20.9397 20.1958 20.9364 20.1929 20.9321C20.1871 20.9233 20.1828 20.9109 20.1812 20.8977C20.1795 20.8844 20.1806 20.8714 20.1841 20.8614C20.1876 20.8514 20.1933 20.8453 20.1999 20.8444C20.1954 20.8415 20.1912 20.8362 20.1877 20.8292C20.1843 20.8222 20.1818 20.8138 20.1806 20.8047C20.1793 20.7957 20.1792 20.7865 20.1804 20.778C20.1816 20.7696 20.1841 20.7623 20.1874 20.7569C20.1828 20.7545 20.1786 20.7497 20.1751 20.7429C20.1717 20.7362 20.1691 20.7278 20.1678 20.7187C20.1665 20.7097 20.1665 20.7002 20.1678 20.6915C20.169 20.6828 20.1715 20.6751 20.1749 20.6694C20.1683 20.6691 20.1619 20.6635 20.1572 20.6538C20.1525 20.6442 20.1499 20.6314 20.1499 20.6181C20.1499 20.6048 20.1525 20.5923 20.1572 20.5831C20.1619 20.574 20.1683 20.5691 20.1749 20.5694C20.1701 20.5683 20.1656 20.5645 20.1619 20.5583C20.1582 20.5521 20.1555 20.5439 20.1542 20.5346C20.1529 20.5253 20.153 20.5154 20.1544 20.506C20.1559 20.4966 20.1587 20.4883 20.1624 20.4819C20.1591 20.4826 20.1558 20.482 20.1527 20.4801C20.1496 20.4782 20.1468 20.4751 20.1445 20.4709C20.1397 20.4625 20.1371 20.4504 20.1371 20.4371C20.1371 20.4239 20.1397 20.4106 20.1445 20.4002C20.1492 20.3899 20.1557 20.3833 20.1624 20.3819C20.1556 20.384 20.149 20.3807 20.1442 20.3728C20.1393 20.3649 20.1366 20.353 20.1366 20.3397C20.1366 20.3264 20.1393 20.3129 20.1442 20.3021C20.149 20.2912 20.1556 20.284 20.1624 20.2819C20.159 20.2773 20.1566 20.2707 20.1553 20.2628C20.1541 20.2548 20.1541 20.2459 20.1554 20.2369C20.1567 20.2279 20.1592 20.2192 20.1626 20.2117C20.1661 20.2042 20.1703 20.1982 20.1749 20.1944C20.1684 20.192 20.1635 20.1845 20.1613 20.1734C20.1591 20.1624 20.1597 20.1487 20.163 20.1355C20.1663 20.1222 20.1721 20.1104 20.179 20.1027C20.1859 20.095 20.1934 20.092 20.1999 20.0944C20.196 20.0913 20.193 20.0858 20.1915 20.0786C20.1899 20.0714 20.1898 20.0627 20.1911 20.0535C20.1924 20.0444 20.1951 20.0351 20.1989 20.0269C20.2026 20.0186 20.2073 20.0117 20.2124 20.0069C20.2052 20.0069 20.1996 20.0017 20.1969 19.9923C20.1941 19.9829 20.1944 19.9702 20.1977 19.957C20.2011 19.9437 20.2071 19.931 20.2145 19.9216C20.222 19.9122 20.2302 19.9069 20.2374 19.9069C20.2341 19.9019 20.2326 19.8943 20.2331 19.8852C20.2336 19.876 20.2361 19.8659 20.2403 19.8562C20.2445 19.8464 20.2501 19.8376 20.2563 19.831C20.2625 19.8244 20.269 19.8203 20.2749 19.8194C20.2709 19.8155 20.2689 19.8087 20.269 19.8002C20.2692 19.7916 20.2716 19.7816 20.2758 19.7718C20.28 19.762 20.2858 19.7528 20.2924 19.7456C20.299 19.7384 20.306 19.7336 20.3124 19.7319C20.3072 19.7295 20.304 19.7238 20.3035 19.7157C20.3029 19.7075 20.305 19.6975 20.3094 19.6873C20.3138 19.677 20.3202 19.6672 20.3276 19.6594C20.335 19.6516 20.3428 19.6463 20.3499 19.6444C20.3442 19.6401 20.3421 19.6314 20.3439 19.6201C20.3457 19.6088 20.3514 19.596 20.3597 19.5844C20.368 19.5728 20.3782 19.5634 20.3881 19.5582C20.398 19.5531 20.4067 19.5526 20.4124 19.5569C20.4055 19.554 20.4022 19.5467 20.4032 19.5364C20.4043 19.5262 20.4095 19.5139 20.4178 19.5023C20.426 19.4907 20.4367 19.4807 20.4474 19.4746C20.4582 19.4684 20.468 19.4665 20.4749 19.4694C20.4705 19.4654 20.4692 19.4585 20.4712 19.4499C20.4733 19.4413 20.4785 19.4316 20.4861 19.4225C20.4936 19.4135 20.503 19.4057 20.5124 19.4005C20.5218 19.3953 20.5307 19.3932 20.5374 19.3944C20.5291 19.3916 20.5251 19.3844 20.5262 19.3742C20.5273 19.364 20.5336 19.3518 20.5435 19.3402C20.5535 19.3286 20.5663 19.3186 20.5792 19.3123C20.5921 19.3061 20.6041 19.3041 20.6124 19.3069" stroke="black" stroke-width="0.0125" stroke-linecap="round" stroke-linejoin="round"/>
<path d="M20.45 21.432L20.3375 21.4695M20.425 21.3445L20.3125 21.382M20.4125 21.257L20.2875 21.2945M20.4 21.1695L20.275 21.207M20.3875 21.0945L20.25 21.1195M20.375 20.9945L20.225 21.032M20.35 20.907L20.2125 20.9445M20.35 20.8195L20.2 20.8445M20.35 20.7445H20.175M20.35 20.657H20.175M20.35 20.5695H20.1625M20.35 20.482H20.1625M20.3625 20.3945L20.1625 20.382M20.375 20.307L20.175 20.282M20.3875 20.232L20.175 20.1945M20.4125 20.1445L20.2 20.0945M20.4375 20.0695L20.2125 20.007M20.4625 19.982L20.2375 19.907M20.4875 19.907L20.275 19.8195M20.525 19.8445L20.3125 19.7195M20.575 19.7695L20.35 19.6445M20.625 19.707L20.4125 19.557M20.675 19.6445L20.475 19.4695M20.7375 19.5945L20.5375 19.3945M20.8 19.5195L20.6125 19.307" stroke="black" stroke-width="0.0125" stroke-linecap="round" stroke-linejoin="round"/>
<path d="M21.6249 20.2195L21.3124 20.257C21.2874 20.3195 21.2874 20.4945 21.2874 20.557C21.5749 20.8445 21.8624 21.207 21.8874 21.5445C21.9801 21.6193 22.0495 21.719 22.0874 21.832C22.2999 21.7195 22.5124 21.5445 22.6874 21.4945C22.8124 21.4695 23.0124 21.457 23.1249 21.5195L23.8249 21.9445C23.9749 22.0445 24.0833 22.1528 24.1499 22.2695C24.2124 22.3695 24.2249 22.557 24.1999 22.607L23.7749 22.482C23.7583 22.4153 23.7708 22.3445 23.8124 22.2695C23.8374 22.1945 23.8374 22.1945 23.7749 22.1445C23.7249 22.1195 23.6833 22.1195 23.6499 22.1445C23.5916 22.1445 23.5416 22.1195 23.4999 22.0695C23.3241 21.9557 23.1352 21.8634 22.9374 21.7945C22.8541 21.7778 22.7624 21.8028 22.6624 21.8695C22.6124 21.9445 22.4624 22.1695 22.3499 22.282C22.3249 22.307 22.3208 22.3403 22.3374 22.382L22.7874 22.3945C22.9624 22.4195 23.1624 22.5945 23.2624 22.707C23.6999 23.107 23.8624 23.332 23.9999 23.457C24.0749 23.5153 24.1166 23.5903 24.1249 23.682H23.6999C23.6999 23.532 23.6833 23.4153 23.6499 23.332C23.5999 23.2695 23.5124 23.2945 23.4749 23.2945C23.4333 23.2861 23.3916 23.2445 23.3499 23.1695C23.2874 23.0445 23.0624 22.882 22.9624 22.8195C22.8624 22.757 22.8249 22.782 22.7124 22.7695C22.6291 22.7445 22.5249 22.7445 22.3999 22.7695C22.2874 22.807 21.9749 22.907 21.6874 22.9445C21.5874 22.9945 21.2749 23.0445 20.9374 23.1195C20.6874 23.1695 20.1249 23.2695 20.0124 23.2695C19.9749 23.532 19.6874 23.9195 19.6124 23.957C19.5291 24.082 19.5208 24.1653 19.5874 24.207C19.6499 24.2695 20.0749 24.2695 20.1749 24.2695L20.5374 24.282C20.5999 24.2945 20.6999 24.382 20.8124 24.4445C20.8874 24.482 20.8999 24.532 20.9499 24.607C20.9916 24.657 21.0249 24.707 21.0499 24.757H20.5499C20.5416 24.6236 20.4999 24.5528 20.4249 24.5445C20.3499 24.5945 20.2624 24.657 20.1624 24.6195C19.7749 24.5945 19.5249 24.6195 19.1624 24.582C19.0499 24.582 18.9624 24.432 18.9999 24.2945C19.0333 24.1778 19.0333 24.0695 18.9999 23.9695C18.9624 24.007 18.8124 24.1445 18.7374 24.2445C18.6124 24.382 18.6874 24.532 18.7374 24.6195C18.7999 24.682 19.2249 25.082 19.2749 25.1945C19.3124 25.2695 19.4874 25.3945 19.6499 25.532C19.7083 25.6403 19.7833 25.7278 19.8749 25.7945H19.2499L19.2749 25.632C19.2749 25.5945 19.2374 25.5195 19.1499 25.532C19.0624 25.5445 18.9999 25.4445 18.9749 25.3695C18.9499 25.2945 18.6624 24.9195 18.5749 24.8445L18.1999 24.482C18.1499 24.4695 18.1374 24.382 18.1999 24.3195C18.309 24.1761 18.3935 24.0156 18.4499 23.8445C18.4874 23.732 18.4499 23.7195 18.4249 23.6945C18.1513 23.493 17.9216 23.2378 17.7499 22.9445C17.5832 22.981 17.4094 22.968 17.2499 22.907C17.1083 22.8236 16.9874 22.8403 16.8874 22.957C16.8374 23.0445 16.8374 23.182 16.9249 23.2445C17.0499 23.3528 17.1874 23.4945 17.3374 23.6695C17.4624 23.832 17.3499 23.957 17.1749 24.107C17.1999 24.1695 17.1749 24.157 17.1999 24.2695C17.2624 24.357 17.2624 24.5695 17.1874 24.607C17.1041 24.6486 17.0208 24.7153 16.9374 24.807C16.8374 24.9195 16.8124 24.807 16.8374 24.632C16.8624 24.5195 16.7749 24.432 16.6999 24.3445C16.6249 24.257 16.6624 24.0195 16.6999 23.9445C16.7624 23.8695 16.7999 23.732 16.6999 23.6195C16.5874 23.5195 16.3874 23.2945 16.4124 22.9945C16.417 22.9195 16.4392 22.8466 16.4774 22.7819C16.5156 22.7172 16.5686 22.6624 16.632 22.6222C16.6955 22.5819 16.7676 22.5573 16.8424 22.5503C16.9172 22.5433 16.9926 22.5542 17.0624 22.582C17.4374 22.7445 17.6499 22.707 17.7624 22.682C17.8624 22.4986 18.0208 22.3403 18.2374 22.207C18.4499 22.082 18.8624 21.9195 19.2749 21.857L20.2874 21.482C20.4249 21.457 20.4124 21.332 20.4124 21.257C20.2874 20.5695 20.3124 19.8445 20.8749 19.482C20.9374 19.4195 20.9124 19.2695 20.9999 19.157L21.1624 19.432C21.4124 19.5195 21.8374 19.6695 22.0124 19.757C22.0958 19.782 22.1666 19.8028 22.2249 19.8195C22.2833 19.8361 22.3249 19.8778 22.3499 19.9445C22.3749 20.0278 22.3583 20.0903 22.2999 20.132C22.2624 20.1445 22.0624 20.082 22.0124 20.132C22.0124 20.1736 22.0708 20.2153 22.1874 20.257C22.2249 20.282 22.1499 20.382 22.0999 20.382C22.0583 20.382 22.0208 20.3695 21.9874 20.3445C21.8624 20.3195 21.7374 20.2778 21.6124 20.2195" fill="white"/>
<path d="M21.6249 20.2195L21.3124 20.257C21.2874 20.3195 21.2874 20.4945 21.2874 20.557C21.5749 20.8445 21.8624 21.207 21.8874 21.5445C21.9801 21.6193 22.0495 21.719 22.0874 21.832C22.2999 21.7195 22.5124 21.5445 22.6874 21.4945C22.8124 21.4695 23.0124 21.457 23.1249 21.5195L23.8249 21.9445C23.9749 22.0445 24.0833 22.1528 24.1499 22.2695C24.2124 22.3695 24.2249 22.557 24.1999 22.607L23.7749 22.482C23.7583 22.4153 23.7708 22.3445 23.8124 22.2695C23.8374 22.1945 23.8374 22.1945 23.7749 22.1445C23.7249 22.1195 23.6833 22.1195 23.6499 22.1445C23.5916 22.1445 23.5416 22.1195 23.4999 22.0695C23.3241 21.9557 23.1352 21.8634 22.9374 21.7945C22.8541 21.7778 22.7624 21.8028 22.6624 21.8695C22.6124 21.9445 22.4624 22.1695 22.3499 22.282C22.3249 22.307 22.3208 22.3403 22.3374 22.382L22.7874 22.3945C22.9624 22.4195 23.1624 22.5945 23.2624 22.707C23.6999 23.107 23.8624 23.332 23.9999 23.457C24.0749 23.5153 24.1166 23.5903 24.1249 23.682H23.6999C23.6999 23.532 23.6833 23.4153 23.6499 23.332C23.5999 23.2695 23.5124 23.2945 23.4749 23.2945C23.4333 23.2861 23.3916 23.2445 23.3499 23.1695C23.2874 23.0445 23.0624 22.882 22.9624 22.8195C22.8624 22.757 22.8249 22.782 22.7124 22.7695C22.6291 22.7445 22.5249 22.7445 22.3999 22.7695C22.2874 22.807 21.9749 22.907 21.6874 22.9445C21.5874 22.9945 21.2749 23.0445 20.9374 23.1195C20.6874 23.1695 20.1249 23.2695 20.0124 23.2695C19.9749 23.532 19.6874 23.9195 19.6124 23.957C19.5291 24.082 19.5208 24.1653 19.5874 24.207C19.6499 24.2695 20.0749 24.2695 20.1749 24.2695L20.5374 24.282C20.5999 24.2945 20.6999 24.382 20.8124 24.4445C20.8874 24.482 20.8999 24.532 20.9499 24.607C20.9916 24.657 21.0249 24.707 21.0499 24.757H20.5499C20.5416 24.6236 20.4999 24.5528 20.4249 24.5445C20.3499 24.5945 20.2624 24.657 20.1624 24.6195C19.7749 24.5945 19.5249 24.6195 19.1624 24.582C19.0499 24.582 18.9624 24.432 18.9999 24.2945C19.0333 24.1778 19.0333 24.0695 18.9999 23.9695C18.9624 24.007 18.8124 24.1445 18.7374 24.2445C18.6124 24.382 18.6874 24.532 18.7374 24.6195C18.7999 24.682 19.2249 25.082 19.2749 25.1945C19.3124 25.2695 19.4874 25.3945 19.6499 25.532C19.7083 25.6403 19.7833 25.7278 19.8749 25.7945H19.2499L19.2749 25.632C19.2749 25.5945 19.2374 25.5195 19.1499 25.532C19.0624 25.5445 18.9999 25.4445 18.9749 25.3695C18.9499 25.2945 18.6624 24.9195 18.5749 24.8445L18.1999 24.482C18.1499 24.4695 18.1374 24.382 18.1999 24.3195C18.309 24.1761 18.3935 24.0156 18.4499 23.8445C18.4874 23.732 18.4499 23.7195 18.4249 23.6945C18.1513 23.493 17.9216 23.2378 17.7499 22.9445C17.5832 22.981 17.4094 22.968 17.2499 22.907C17.1083 22.8236 16.9874 22.8403 16.8874 22.957C16.8374 23.0445 16.8374 23.182 16.9249 23.2445C17.0499 23.3528 17.1874 23.4945 17.3374 23.6695C17.4624 23.832 17.3499 23.957 17.1749 24.107C17.1999 24.1695 17.1749 24.157 17.1999 24.2695C17.2624 24.357 17.2624 24.5695 17.1874 24.607C17.1041 24.6486 17.0208 24.7153 16.9374 24.807C16.8374 24.9195 16.8124 24.807 16.8374 24.632C16.8624 24.5195 16.7749 24.432 16.6999 24.3445C16.6249 24.257 16.6624 24.0195 16.6999 23.9445C16.7624 23.8695 16.7999 23.732 16.6999 23.6195C16.5874 23.5195 16.3874 23.2945 16.4124 22.9945C16.417 22.9195 16.4392 22.8466 16.4774 22.7819C16.5156 22.7172 16.5686 22.6624 16.632 22.6222C16.6955 22.5819 16.7676 22.5573 16.8424 22.5503C16.9172 22.5433 16.9926 22.5542 17.0624 22.582C17.4374 22.7445 17.6499 22.707 17.7624 22.682C17.8624 22.4986 18.0208 22.3403 18.2374 22.207C18.4499 22.082 18.8624 21.9195 19.2749 21.857L20.2874 21.482C20.4249 21.457 20.4124 21.332 20.4124 21.257C20.2874 20.5695 20.3124 19.8445 20.8749 19.482C20.9374 19.4195 20.9124 19.2695 20.9999 19.157L21.1624 19.432C21.4124 19.5195 21.8374 19.6695 22.0124 19.757C22.0958 19.782 22.1666 19.8028 22.2249 19.8195C22.2833 19.8361 22.3249 19.8778 22.3499 19.9445C22.3749 20.0278 22.3583 20.0903 22.2999 20.132C22.2624 20.1445 22.0624 20.082 22.0124 20.132C22.0124 20.1736 22.0708 20.2153 22.1874 20.257C22.2249 20.282 22.1499 20.382 22.0999 20.382C22.0583 20.382 22.0208 20.3695 21.9874 20.3445C21.8624 20.3195 21.7374 20.2778 21.6124 20.2195" stroke="black" stroke-width="0.0625" stroke-linecap="round" stroke-linejoin="round"/>
<path d="M20.9125 19.7694C20.9125 20.1944 21.05 20.4069 21.2875 20.5569M22.0875 21.8319C22.1212 21.9969 22.1212 22.1669 22.0875 22.3319M19 23.9569C19.3125 23.8194 19.6 23.4569 19.5875 23.2319C19.5875 23.1069 19.475 22.9194 19.2 22.9069M19.575 23.2319C19.675 23.2694 19.8625 23.2444 20.0125 23.2694M21.5875 22.2319C21.8375 22.2444 22.1625 22.3944 22.3375 22.3819M21.4625 22.7319C21.6875 22.7819 21.6875 22.8819 22.125 22.8569M21.375 21.3319C21.6125 21.3319 21.75 21.4569 21.875 21.5444" stroke="black" stroke-width="0.0625" stroke-linecap="round" stroke-linejoin="round"/>
<path d="M19.5375 23.4319C19.7125 23.4486 19.8375 23.3902 19.9125 23.2569M20.9125 19.7694C20.9125 20.1194 21.0375 20.2069 21.3125 20.2569" stroke="black" stroke-width="0.0375" stroke-linecap="round" stroke-linejoin="round"/>
<path d="M22.25 19.832C22.2375 19.9195 22.225 19.9945 22.375 19.982M21.6124 19.5945C21.4999 19.8695 22.0625 19.907 22.075 20.0945M18.95 21.932C19.225 22.057 19.2 22.5945 19.2 22.907" stroke="black" stroke-width="0.025" stroke-linecap="round" stroke-linejoin="round"/>
<path d="M21.95 20.0945C21.8625 20.2695 21.6625 20.532 21.475 20.6695C21.1834 20.8861 20.8459 21.0403 20.4625 21.132C20.4042 21.157 20.3375 21.1611 20.2625 21.1445C20.1792 21.1445 20.1084 21.0861 20.05 20.9695C20.025 20.9195 20.0375 20.6445 20.1375 20.607C20.2331 20.57 20.3352 20.553 20.4375 20.557C20.5125 20.557 20.5542 20.5903 20.5625 20.657C20.5542 20.7236 20.5125 20.7528 20.4375 20.7445C20.3625 20.7195 20.25 20.6695 20.1875 20.7195C20.1375 20.7445 20.1 20.8695 20.1375 20.932C20.1792 21.0153 20.225 21.057 20.275 21.057L20.4375 21.0445C20.8042 20.9445 21.1292 20.7945 21.4125 20.5945C21.6 20.4695 21.7875 20.1695 21.8625 20.0445L21.95 20.0945ZM20.45 20.632C20.3375 20.607 20.15 20.632 20.1375 20.682C20.2209 20.6403 20.325 20.6403 20.45 20.682C20.4917 20.6736 20.4917 20.657 20.45 20.632ZM21.2 19.6945L21.2375 19.607C21.25 19.5945 21.2125 19.3945 21.4125 19.4945C21.625 19.6195 21.4625 19.707 21.45 19.7195L21.4 19.807" fill="white"/>
<path d="M21.2 19.6945L21.2375 19.607C21.25 19.5945 21.2125 19.3945 21.4125 19.4945C21.625 19.6195 21.4625 19.707 21.45 19.7195L21.4 19.807M21.95 20.0945C21.8625 20.2695 21.6625 20.532 21.475 20.6695C21.1834 20.8861 20.8459 21.0403 20.4625 21.132C20.4042 21.157 20.3375 21.1611 20.2625 21.1445C20.1792 21.1445 20.1084 21.0861 20.05 20.9695C20.025 20.9195 20.0375 20.6445 20.1375 20.607C20.2331 20.57 20.3352 20.553 20.4375 20.557C20.5125 20.557 20.5542 20.5903 20.5625 20.657C20.5542 20.7236 20.5125 20.7528 20.4375 20.7445C20.3625 20.7195 20.25 20.6695 20.1875 20.7195C20.1375 20.7445 20.1 20.8695 20.1375 20.932C20.1792 21.0153 20.225 21.057 20.275 21.057L20.4375 21.0445C20.8042 20.9445 21.1292 20.7945 21.4125 20.5945C21.6 20.4695 21.7875 20.1695 21.8625 20.0445L21.95 20.0945ZM20.45 20.632C20.3375 20.607 20.15 20.632 20.1375 20.682C20.2209 20.6403 20.325 20.6403 20.45 20.682C20.4917 20.6736 20.4917 20.657 20.45 20.632Z" stroke="black" stroke-width="0.025" stroke-linecap="round" stroke-linejoin="round"/>
<path d="M20.8375 19.507L22.025 20.132" stroke="black" stroke-width="0.05" stroke-linecap="round" stroke-linejoin="round"/>
<path d="M19.3375 19.5569C19.0693 19.5668 18.8008 19.5459 18.5375 19.4944C18.4375 19.4819 18.15 19.8944 18 19.9194C17.85 19.9569 17.7 19.6194 17.4875 19.6944C17.375 19.7819 17.4875 20.1944 17.425 20.2319C17.3625 20.2944 17.175 20.0319 17.05 20.1069C16.925 20.2069 17.15 20.7444 17.0875 20.8069C17.025 20.8694 16.7625 20.5694 16.675 20.6319C16.5875 20.6944 16.7625 21.5319 16.675 21.5694C16.6 21.6194 16.2125 21.3444 16.175 21.4569C16.1125 21.5819 16.7125 21.8444 16.875 21.8569L17.0375 21.7944C17.0875 21.8194 17.5625 21.8569 17.6125 21.8569L17.875 21.5819C18.2875 21.0444 18.75 20.5444 19.3375 20.5819V19.5569Z" fill="white" stroke="black" stroke-width="0.0375" stroke-linecap="round" stroke-linejoin="round"/>
<path d="M17.525 19.6944L18.3125 19.6569M17.05 20.1069L17.425 19.9819M16.675 20.6069L17.0375 20.4569M16.1625 21.4569L16.6625 21.0069M17.0375 21.7819C17.25 21.4069 17.6625 21.0069 18.025 20.7944M16.6875 21.5694C16.9875 21.2069 17.825 20.6194 18.1 20.5694M17.425 20.2319C17.775 20.0819 18.275 20.0569 18.675 20.0194M17.9875 19.9194C18.0375 19.9194 18.6375 19.8444 18.9 19.8569M17.0875 20.8194C17.5375 20.5444 18.0166 20.3235 18.525 20.1569" stroke="black" stroke-width="0.0375" stroke-linecap="round" stroke-linejoin="round"/>
<path d="M21.025 26.532C21.0625 26.5445 21.1 26.632 21.1 26.632C21.1 26.632 21.025 26.6695 21 26.657L17.3125 25.557C17.2125 25.532 17.25 25.357 17.3625 25.3945L21.025 26.532ZM17.525 21.407C17.4917 21.3153 17.4417 21.2612 17.375 21.2445C17.35 21.2445 17.2625 21.332 17.275 21.357C17.275 21.407 17.3875 21.482 17.425 21.482L17.525 21.407ZM17.8625 21.532L17.55 21.8445C17.5125 21.882 17.5875 21.9445 17.625 21.907L17.9375 21.607C17.975 21.5695 17.9 21.4945 17.8625 21.532ZM17.7125 21.832L18.675 22.8195L18.8625 22.8445L18.8375 22.6445L17.8375 21.6945L17.7125 21.832Z" fill="white" stroke="black" stroke-width="0.05" stroke-linecap="round" stroke-linejoin="round"/>
<path d="M18.725 22.707L17.775 21.757" stroke="black" stroke-width="0.0125" stroke-linecap="round" stroke-linejoin="round"/>
<path d="M20 19.957C20 19.8986 20.0209 19.857 20.0625 19.832C20.125 19.7945 20.1 19.8195 20.1375 19.832L20.2375 19.8945C20.2625 19.9111 20.2792 19.9111 20.2875 19.8945C20.2875 19.8611 20.3 19.8278 20.325 19.7945L20.35 19.7695C20.375 19.7695 20.3834 19.757 20.375 19.732C20.3667 19.707 20.3792 19.6903 20.4125 19.682C20.4375 19.682 20.4875 19.7195 20.4875 19.682L20.525 19.482C20.6 19.4945 20.575 19.407 20.6 19.407C20.675 19.432 20.7125 19.307 20.6625 19.257C20.6709 19.1653 20.7417 19.1236 20.875 19.132C20.8625 19.0695 20.7625 19.0445 20.7 18.957C20.6375 18.8695 20.45 18.757 20.225 18.757C20 18.757 19.8375 18.957 19.75 19.0445C19.6625 19.132 19.5 19.1695 19.4625 19.1695C19.4209 19.1445 19.3792 19.1278 19.3375 19.1195H19.125C19.05 19.1195 19.025 19.1695 18.9375 19.157C18.8875 19.157 18.6875 19.157 18.625 19.182C18.5625 19.207 18.625 19.332 18.6875 19.3445C18.7125 19.3445 18.875 19.3445 18.9375 19.382C19 19.4195 19.1875 19.432 19.2625 19.3945C19.425 19.3445 19.525 19.4445 19.7 19.4945L19.7625 19.507C19.7709 19.607 19.7542 19.6528 19.7125 19.6445H19.5625L19.4 19.5695C19.325 19.5695 19.275 19.5778 19.25 19.5945C19.0375 19.682 18.2875 20.2695 18.2125 20.407C18.125 20.557 18 20.6445 17.8875 20.8695C17.825 20.9945 17.7 21.1445 17.625 21.3445C17.5 21.407 17.3625 21.5195 17.3375 21.557C17.3375 21.5903 17.3542 21.6153 17.3875 21.632C17.3875 21.657 17.4125 21.6778 17.4625 21.6945C17.4542 21.7278 17.4709 21.7445 17.5125 21.7445C17.5125 21.7861 17.5334 21.8153 17.575 21.832L17.875 21.5195C17.8917 21.3778 17.9334 21.2611 18 21.1695C18.1564 20.9759 18.2984 20.7712 18.425 20.557C18.4625 20.507 18.825 20.3695 18.925 20.282C18.8933 20.4723 18.8933 20.6666 18.925 20.857C18.9875 21.107 19.0625 21.2695 19.1125 21.482C19.1625 21.6945 19.1125 21.8195 19.1125 21.9195C19.1125 21.9778 19.1542 22.0195 19.2375 22.0445C19.3 22.0945 19.6 22.0445 19.6875 22.082C19.8709 22.1236 20 22.1486 20.075 22.157C20.2251 22.1276 20.3808 22.1543 20.5125 22.232C20.5875 22.2945 20.725 22.607 20.775 22.732C20.825 22.857 21.1 22.9945 21.15 23.0695C21.2125 23.132 21.2625 23.3195 21.25 23.407C21.2334 23.4903 21.2625 23.5236 21.3375 23.507C21.4 23.507 21.65 23.5445 21.6875 23.5695C21.7375 23.5945 21.8375 23.682 21.875 23.682C21.9125 23.682 22.0875 23.707 22.175 23.6945C22.2625 23.682 22.25 23.557 22.2125 23.5445L21.9625 23.4945C21.8324 23.4323 21.7173 23.3428 21.625 23.232C21.5584 23.132 21.5042 23.0278 21.4625 22.9195L21.075 22.357L20.875 21.882C20.8375 21.7945 20.775 21.7945 20.7125 21.7695C20.4875 21.707 20.4 21.682 20.1625 21.6445C20 21.607 19.9625 21.5945 19.9375 21.4695C19.9375 21.3695 19.8625 21.1945 19.9 21.0695L19.95 20.8445C19.95 20.782 20 20.682 20 20.632L20.025 20.257L20 19.957ZM20.175 20.982C20.15 20.982 20.05 21.007 19.9875 20.982C19.975 20.982 19.9875 20.932 19.9875 20.932C19.9875 20.932 19.9625 20.8945 19.9875 20.882C19.9792 20.8653 19.9792 20.8486 19.9875 20.832C19.9625 20.807 19.9625 20.7861 19.9875 20.7695L20.1625 20.757C20.1959 20.832 20.2 20.907 20.175 20.982Z" fill="white" stroke="black" stroke-width="0.0625" stroke-linecap="round" stroke-linejoin="round"/>
<path d="M19.7625 19.5194C19.8125 19.5569 19.8125 19.5194 19.9 19.4944C19.9875 19.4694 20.0625 19.5444 20.025 19.6194C19.9916 19.7028 20.0166 19.7528 20.1 19.7694C20.225 19.7944 20.225 19.6819 20.25 19.6444L20.3375 19.5569C20.3625 19.4569 20.4625 19.4819 20.525 19.4944M20.65 19.2569C20.6125 19.2819 20.5 19.1944 20.475 19.1194C20.45 19.0111 20.375 18.9528 20.25 18.9444C20.0625 18.9319 19.875 19.0194 19.8375 19.1569L19.8 19.3694C19.75 19.3694 19.7208 19.3778 19.7125 19.3944L19.7 19.4944M18.9125 20.2819L19.1625 20.1569" stroke="black" stroke-width="0.0625" stroke-linecap="round" stroke-linejoin="round"/>
<path d="M19.1749 20.1694C19.2374 20.3319 19.2999 20.4944 19.3874 20.5444M19.5249 20.6069C19.6249 20.6569 19.7291 20.6653 19.8374 20.6319M19.1999 21.8194C19.4624 21.8194 19.5749 21.9444 19.7874 22.0194C20.0124 22.0819 20.3124 22.0444 20.5999 22.1819M19.1124 20.9694C19.1958 21.0194 19.2791 21.0444 19.3624 21.0444M19.4749 21.0444C19.6249 21.0778 19.7208 21.1361 19.7624 21.2194M19.4124 21.3569C19.5374 21.4819 19.7874 21.5819 19.9374 21.5819" stroke="black" stroke-width="0.0375" stroke-linecap="round" stroke-linejoin="round"/>
<path d="M19.625 19.632C19.7375 20.032 19.75 20.182 20.025 20.257M19.5125 19.6195C19.6375 20.007 19.7625 20.2195 20.025 20.2445C19.7 20.232 19.525 19.957 19.4 19.5695M21.4625 22.9195L21.1625 23.082M20.8875 22.857L21.2875 22.657M20.825 22.782L21.2375 22.582M21.475 23.3445C21.425 23.3111 21.3834 23.257 21.35 23.182L21.2625 22.982L21.2 23.0195C21.15 23.0195 21.1417 23.0028 21.175 22.9695L21.225 22.9445L21.15 22.7945C21.125 22.7945 21.1334 22.782 21.175 22.757C21.2167 22.732 21.2334 22.732 21.225 22.757L21.3 22.907L21.35 22.882C21.3875 22.857 21.4125 22.9195 21.375 22.932L21.3125 22.957L21.4125 23.157C21.4625 23.2445 21.475 23.2695 21.475 23.3445Z" stroke="black" stroke-width="0.025" stroke-linecap="round" stroke-linejoin="round"/>
<path d="M17.5125 21.7569L17.65 21.6319M17.4625 21.6944L17.5875 21.5694M17.3875 21.6319L17.525 21.5069M20 20.9319H20.125M19.9874 20.8319H20.1124M19.9874 20.8819H20.1124M20.275 19.7319L20.35 19.7694" stroke="black" stroke-width="0.0125" stroke-linecap="round" stroke-linejoin="round"/>
</g>
<defs>
<clipPath id="clip0_270_16617">
<rect width="80" height="60" fill="white" transform="translate(0.0683594)"/>
</clipPath>
<clipPath id="clip1_270_16617">
<rect width="80" height="60" fill="white" transform="translate(0 2.63196)"/>
</clipPath>
</defs>
</svg>
