<svg width="80" height="60" viewBox="0 0 80 60" fill="none" xmlns="http://www.w3.org/2000/svg">
<path d="M32 0H80V60H32V0Z" fill="#FF0000"/>
<path d="M0 0H32V60H0V0Z" fill="#006600"/>
<path fill-rule="evenodd" clip-rule="evenodd" d="M42.4375 38.275C38.4 38.15 19.9375 26.625 19.8125 24.775L20.825 23.0875C22.6625 25.75 41.5375 36.9625 43.4 36.5625L42.4375 38.275Z" fill="#FFFF00" stroke="black" stroke-width="0.075" stroke-linecap="round" stroke-linejoin="round"/>
<path fill-rule="evenodd" clip-rule="evenodd" d="M20.6125 22.85C20.25 23.825 25.4375 27.025 31.6625 30.825C37.8875 34.625 43.275 36.95 43.6625 36.625L43.85 36.275C43.775 36.4083 43.5958 36.4333 43.3125 36.35C41.625 35.8625 37.2375 33.85 31.8 30.55C26.35 27.25 21.625 24.2125 20.8875 22.925C20.8284 22.8048 20.8025 22.671 20.8125 22.5375H20.7875L20.6375 22.8125L20.6125 22.85ZM42.525 38.325C42.4667 38.4333 42.3208 38.4666 42.0875 38.425C40.5875 38.2625 36.0125 36.0375 30.6 32.8C24.3 29.025 19.1 25.6 19.675 24.7L19.825 24.425L19.85 24.4375C19.35 25.9625 30.1125 32.1125 30.75 32.5125C36.975 36.3625 42.225 38.625 42.6875 38.0375L42.525 38.325Z" fill="#FFFF00" stroke="black" stroke-width="0.075" stroke-linecap="round" stroke-linejoin="round"/>
<path fill-rule="evenodd" clip-rule="evenodd" d="M32.025 25.9C36.05 25.8625 41.025 25.35 43.9 24.2L43.275 23.2C41.5875 24.1375 36.5875 24.7625 31.9875 24.85C26.5625 24.8 22.725 24.2875 20.8 23L20.225 24.075C23.75 25.575 27.375 25.8875 32.025 25.9Z" fill="#FFFF00" stroke="black" stroke-width="0.075" stroke-linecap="round" stroke-linejoin="round"/>
<path fill-rule="evenodd" clip-rule="evenodd" d="M44.0625 24.225C43.9625 24.3875 42.0875 25.025 39.3375 25.5C36.9133 25.8674 34.4644 26.0471 32.0125 26.0375C29.6634 26.0463 27.3163 25.896 24.9875 25.5875C22.1 25.1375 20.6125 24.5125 20.05 24.2875L20.1875 24.0125C21.775 24.6375 23.275 25.0125 25.025 25.2875C27.3369 25.5994 29.6672 25.7539 32 25.75C34.4392 25.7524 36.8751 25.5727 39.2875 25.2125C42.1 24.75 43.6375 24.1625 43.8625 23.9L44.0625 24.225ZM43.5125 23.2125C43.2125 23.4625 41.6875 23.9999 39.0125 24.4249C36.7026 24.7592 34.3715 24.9263 32.0375 24.9249C29.2875 24.9249 27.025 24.725 25.3125 24.475C22.5875 24.125 21.1375 23.4749 20.6125 23.2999L20.775 23.025C21.1875 23.2375 22.575 23.8 25.3375 24.1875C27.5582 24.4849 29.797 24.6269 32.0375 24.6124C34.3549 24.6132 36.6693 24.4461 38.9625 24.1124C41.65 23.7374 43.1 23.0625 43.325 22.8875L43.5125 23.2125ZM18.7875 30.75C21.2625 32.0875 26.775 32.7499 31.9875 32.7999C36.7375 32.8124 42.9125 32.075 45.225 30.85L45.1625 29.5125C44.4375 30.6375 37.8125 31.725 31.9375 31.6875C26.0625 31.65 20.6 30.7375 18.775 29.5625V30.75" fill="#FFFF00"/>
<path d="M18.7875 30.75C21.2625 32.0875 26.775 32.7499 31.9875 32.7999C36.7375 32.8124 42.9125 32.075 45.225 30.85L45.1625 29.5125C44.4375 30.6375 37.8125 31.725 31.9375 31.6875C26.0625 31.65 20.6 30.7375 18.775 29.5625V30.75M44.0625 24.225C43.9625 24.3875 42.0875 25.025 39.3375 25.5C36.9133 25.8674 34.4644 26.0471 32.0125 26.0375C29.6634 26.0463 27.3163 25.896 24.9875 25.5875C22.1 25.1375 20.6125 24.5125 20.05 24.2875L20.1875 24.0125C21.775 24.6375 23.275 25.0125 25.025 25.2875C27.3369 25.5994 29.6672 25.7539 32 25.75C34.4392 25.7524 36.8751 25.5727 39.2875 25.2125C42.1 24.75 43.6375 24.1625 43.8625 23.9L44.0625 24.225ZM43.5125 23.2125C43.2125 23.4625 41.6875 23.9999 39.0125 24.4249C36.7026 24.7592 34.3715 24.9263 32.0375 24.9249C29.2875 24.9249 27.025 24.725 25.3125 24.475C22.5875 24.125 21.1375 23.4749 20.6125 23.2999L20.775 23.025C21.1875 23.2375 22.575 23.8 25.3375 24.1875C27.5582 24.4849 29.797 24.6269 32.0375 24.6124C34.3549 24.6132 36.6693 24.4461 38.9625 24.1124C41.65 23.7374 43.1 23.0625 43.325 22.8875L43.5125 23.2125Z" stroke="black" stroke-width="0.075" stroke-linecap="round" stroke-linejoin="round"/>
<path fill-rule="evenodd" clip-rule="evenodd" d="M45.35 30.5625V30.875C45 31.3 42.825 31.925 40.1 32.375C37.3928 32.7641 34.66 32.948 31.925 32.9249C29.3316 32.947 26.7405 32.7673 24.175 32.3875C22.2607 32.1662 20.3901 31.6607 18.625 30.8875V30.525C19.8375 31.325 23.1125 31.9249 24.2125 32.0999C26.1875 32.3999 28.725 32.625 31.925 32.625C35.2875 32.625 37.975 32.3875 40.05 32.075C42.0125 31.7875 44.8 31.05 45.35 30.5625ZM45.35 29.4375V29.75C45 30.1625 42.825 30.7874 40.1 31.2374C37.3931 31.6308 34.6603 31.8188 31.925 31.7999C29.3318 31.8152 26.7412 31.6355 24.175 31.2625C22.2607 31.0412 20.3901 30.5357 18.625 29.7625V29.3875C19.8375 30.2 23.125 30.7875 24.2125 30.9625C26.766 31.3365 29.3443 31.5162 31.925 31.5C35.2875 31.5 37.9875 31.25 40.05 30.9375C42.0125 30.6625 44.8 29.925 45.35 29.4375ZM31.975 38.0374C26.275 38.0124 21.3875 36.4874 20.35 36.2374L21.1 37.4124C24.6063 38.6537 28.306 39.259 32.025 39.2C36.3625 39.075 40.15 38.7375 42.8125 37.4375L43.5875 36.2125C41.775 37.075 35.5875 38.0374 31.9625 38.0374" fill="#FFFF00"/>
<path d="M31.975 38.0374C26.275 38.0124 21.3875 36.4874 20.35 36.2374L21.1 37.4124C24.6063 38.6537 28.306 39.259 32.025 39.2C36.3625 39.075 40.15 38.7375 42.8125 37.4375L43.5875 36.2125C41.775 37.075 35.5875 38.0374 31.9625 38.0374M45.35 30.5625V30.875C45 31.3 42.825 31.925 40.1 32.375C37.3928 32.7641 34.66 32.948 31.925 32.9249C29.3316 32.947 26.7405 32.7673 24.175 32.3875C22.2607 32.1662 20.3901 31.6607 18.625 30.8875V30.525C19.8375 31.325 23.1125 31.9249 24.2125 32.0999C26.1875 32.3999 28.725 32.625 31.925 32.625C35.2875 32.625 37.975 32.3875 40.05 32.075C42.0125 31.7875 44.8 31.05 45.35 30.5625ZM45.35 29.4375V29.75C45 30.1625 42.825 30.7874 40.1 31.2374C37.3931 31.6308 34.6603 31.8188 31.925 31.7999C29.3318 31.8152 26.7412 31.6355 24.175 31.2625C22.2607 31.0412 20.3901 30.5357 18.625 29.7625V29.3875C19.8375 30.2 23.125 30.7875 24.2125 30.9625C26.766 31.3365 29.3443 31.5162 31.925 31.5C35.2875 31.5 37.9875 31.25 40.05 30.9375C42.0125 30.6625 44.8 29.925 45.35 29.4375Z" stroke="black" stroke-width="0.075" stroke-linecap="round" stroke-linejoin="round"/>
<path fill-rule="evenodd" clip-rule="evenodd" d="M43.1125 37.1625L42.7625 37.6625C41.5125 38.1125 39.5125 38.5875 38.6875 38.7125C36.4737 39.1247 34.2269 39.3339 31.975 39.3375C26.925 39.2625 22.7875 38.275 20.85 37.425L20.6875 37.1625L20.7125 37.1125L20.975 37.225C24.5328 38.4012 28.2529 39.0128 32 39.0375C34.35 39.0375 36.6875 38.775 38.575 38.4375C41.475 37.85 42.65 37.4125 43.0125 37.2125L43.1 37.1625H43.1125ZM43.775 36.0625L43.525 36.5C42.85 36.75 41.025 37.275 38.3625 37.65C36.6125 37.8875 35.525 38.125 32.0375 38.1875C28.0507 38.1481 24.0884 37.5592 20.2625 36.4375L20.125 36.125C24.0123 37.1993 28.0179 37.7872 32.05 37.875C35.2375 37.8125 36.6 37.575 38.3375 37.3375C41.4375 36.8625 43 36.3375 43.4625 36.2V36.175L43.7875 36.05L43.775 36.0625Z" fill="#FFFF00" stroke="black" stroke-width="0.075" stroke-linecap="round" stroke-linejoin="round"/>
<path fill-rule="evenodd" clip-rule="evenodd" d="M43.85 29.7C43.8625 33.45 41.9375 36.825 40.4 38.3C38.1314 40.518 35.0975 41.7799 31.925 41.825C28.1375 41.8875 24.575 39.425 23.6125 38.3375C21.4593 36.0541 20.2338 33.0505 20.175 29.9125C20.4 25.8125 22.0125 22.9625 24.3375 21C26.5982 19.1445 29.438 18.1404 32.3625 18.1625C34.0705 18.2438 35.7425 18.6817 37.2711 19.4481C38.7996 20.2145 40.1507 21.2924 41.2375 22.6125C42.8 24.5125 43.4875 26.575 43.85 29.7ZM31.95 16.875C35.4469 16.8749 38.802 18.2571 41.284 20.7204C43.766 23.1837 45.1737 26.5282 45.2 30.025C45.2 31.7601 44.8583 33.4782 44.1943 35.0812C43.5303 36.6842 42.5571 38.1408 41.3302 39.3676C40.1033 40.5945 38.6468 41.5678 37.0437 42.2318C35.4407 42.8957 33.7226 43.2375 31.9875 43.2375C30.2525 43.2375 28.5344 42.8957 26.9313 42.2318C25.3283 41.5678 23.8718 40.5945 22.6449 39.3676C21.418 38.1408 20.4448 36.6842 19.7808 35.0812C19.1168 33.4782 18.775 31.7601 18.775 30.025C18.7625 22.775 24.6875 16.875 31.95 16.875Z" fill="#FFFF00" stroke="black" stroke-width="0.075" stroke-linecap="round" stroke-linejoin="round"/>
<path fill-rule="evenodd" clip-rule="evenodd" d="M31.9875 16.8125C39.2625 16.8125 45.1875 22.7375 45.1875 30.0125C45.1875 37.2875 39.2625 43.2125 32 43.2125C24.7375 43.2125 18.8 37.2875 18.8 30.0125C18.8 22.7375 24.725 16.8125 32 16.8125H31.9875ZM19.0751 30C19.0751 37.1 24.9125 42.9125 31.9875 42.9125C39.0625 42.9125 44.9001 37.1 44.9001 30C44.9001 22.9 39.0625 17.0875 31.9875 17.0875C24.9125 17.0875 19.0751 22.9 19.0751 30Z" fill="#FFFF00" stroke="black" stroke-width="0.075" stroke-linecap="round" stroke-linejoin="round"/>
<path fill-rule="evenodd" clip-rule="evenodd" d="M32 17.9125C35.2027 17.9224 38.2715 19.199 40.5362 21.4637C42.8009 23.7285 44.0776 26.7972 44.0875 30C44.0809 33.2049 42.8057 36.2769 40.5406 38.5443C38.2755 40.8117 35.2049 42.0901 32 42.1C25.375 42.1 19.9125 36.65 19.9125 30C19.9224 26.7972 21.199 23.7285 23.4637 21.4637C25.7285 19.199 28.7972 17.9224 32 17.9125ZM20.2 30C20.2 36.5 25.525 41.8 32 41.8C38.475 41.8 43.8 36.4875 43.8 30C43.8 23.5125 38.475 18.2 32 18.2C28.8765 18.2196 25.8865 19.4692 23.6778 21.6778C21.4692 23.8865 20.2196 26.8765 20.2 30Z" fill="#FFFF00" stroke="black" stroke-width="0.075" stroke-linecap="round" stroke-linejoin="round"/>
<path fill-rule="evenodd" clip-rule="evenodd" d="M32.5375 16.75H31.4V43.2875H32.525L32.5375 16.75Z" fill="#FFFF00" stroke="black" stroke-width="0.075" stroke-linecap="round" stroke-linejoin="round"/>
<path fill-rule="evenodd" clip-rule="evenodd" d="M32.4125 16.6H32.7V43.4375H32.425V16.6H32.4125ZM31.2875 16.6H31.5875V43.4375H31.3L31.2875 16.6Z" fill="#FFFF00" stroke="black" stroke-width="0.075" stroke-linecap="round" stroke-linejoin="round"/>
<path fill-rule="evenodd" clip-rule="evenodd" d="M45.2001 30.525V29.55L44.4001 28.8L39.8625 27.6L33.3376 26.9375L25.4625 27.3375L19.8625 28.6625L18.7375 29.5V30.4875L21.6 29.2L28.4 28.1375H34.9375L39.7375 28.6625L43.0625 29.4625L45.2001 30.525Z" fill="#FFFF00" stroke="black" stroke-width="0.075" stroke-linecap="round" stroke-linejoin="round"/>
<path fill-rule="evenodd" clip-rule="evenodd" d="M32 27.975C35.1125 27.975 38.125 28.2625 40.5375 28.725C43.0125 29.225 44.75 29.85 45.35 30.5375V30.8875C44.625 30.0125 42.2875 29.3875 40.475 29.0125C38.1 28.5625 35.1 28.2625 31.9875 28.2625C28.725 28.2625 25.675 28.5875 23.325 29.0375C21.45 29.4125 18.9375 30.1625 18.625 30.8875V30.525C18.7875 30.025 20.6625 29.275 23.2875 28.7375C25.65 28.275 28.7 27.975 31.9875 27.975H32ZM32 26.8375C34.8625 26.8317 37.7198 27.0827 40.5375 27.5875C43.0125 28.0875 44.75 28.7125 45.35 29.4125V29.75C44.625 28.8875 42.2875 28.25 40.475 27.8875C38.1 27.425 35.1 27.1375 31.9875 27.1375C29.0864 27.1283 26.1907 27.3877 23.3375 27.9125C21.525 28.25 18.9125 29.025 18.625 29.75V29.4C18.8 28.9 20.7 28.1125 23.2875 27.6125C25.6625 27.15 28.7 26.8375 32 26.8375ZM31.925 21.0625C36.8375 21.0375 41.125 21.75 43.0875 22.75L43.8 24C42.1 23.075 37.475 22.125 31.9375 22.25C27.425 22.2875 22.6 22.75 20.1875 24.05L21.0375 22.625C23.025 21.5875 27.7 21.0625 31.925 21.0625Z" fill="#FFFF00" stroke="black" stroke-width="0.075" stroke-linecap="round" stroke-linejoin="round"/>
<path fill-rule="evenodd" clip-rule="evenodd" d="M32 22.0875C34.5649 22.0442 37.1287 22.224 39.6625 22.625C41.6625 23 43.575 23.55 43.85 23.85L44.0625 24.225C43.4 23.8 41.7375 23.3125 39.6125 22.9125C37.4875 22.5125 34.775 22.375 31.9875 22.3875C28.825 22.375 26.3625 22.5375 24.2625 22.9125C22.8149 23.1156 21.4094 23.5503 20.1 24.2L20.3125 23.8125C21.0625 23.4375 22.225 22.975 24.2 22.6125C26.3875 22.2125 28.875 22.1 32 22.0875ZM32 20.9625C34.675 20.9375 37.325 21.0875 39.3875 21.4625C40.7237 21.6609 42.0169 22.0835 43.2125 22.7125L43.525 23.2125C43 22.625 41.025 22.0625 39.2625 21.7625C37.2125 21.4 34.675 21.2625 32 21.2375C29.5099 21.2153 27.0222 21.3992 24.5625 21.7875C23.2762 21.9661 22.0269 22.3501 20.8625 22.925L21.1375 22.5125C21.8625 22.1375 23.0375 21.7875 24.5125 21.5C26.9884 21.1066 29.4931 20.9227 32 20.95V20.9625ZM38.55 35.5C36.3834 35.1246 34.1859 34.9571 31.9875 35C23.8 35.1 21.1625 36.6875 20.8375 37.1625L20.2125 36.1625C22.3125 34.6625 26.7625 33.8125 32.0375 33.8875C34.7791 33.9291 37.1375 34.1375 39.1125 34.5125L38.55 35.5125" fill="#FFFF00"/>
<path d="M38.55 35.5C36.3834 35.1246 34.1859 34.9571 31.9875 35C23.8 35.1 21.1625 36.6875 20.8375 37.1625L20.2125 36.1625C22.3125 34.6625 26.7625 33.8125 32.0375 33.8875C34.7791 33.9291 37.1375 34.1375 39.1125 34.5125L38.55 35.5125M32 22.0875C34.5649 22.0442 37.1287 22.224 39.6625 22.625C41.6625 23 43.575 23.55 43.85 23.85L44.0625 24.225C43.4 23.8 41.7375 23.3125 39.6125 22.9125C37.4875 22.5125 34.775 22.375 31.9875 22.3875C28.825 22.375 26.3625 22.5375 24.2625 22.9125C22.8149 23.1156 21.4094 23.5503 20.1 24.2L20.3125 23.8125C21.0625 23.4375 22.225 22.975 24.2 22.6125C26.3875 22.2125 28.875 22.1 32 22.0875ZM32 20.9625C34.675 20.9375 37.325 21.0875 39.3875 21.4625C40.7237 21.6609 42.0169 22.0835 43.2125 22.7125L43.525 23.2125C43 22.625 41.025 22.0625 39.2625 21.7625C37.2125 21.4 34.675 21.2625 32 21.2375C29.5099 21.2153 27.0222 21.3992 24.5625 21.7875C23.2762 21.9661 22.0269 22.3501 20.8625 22.925L21.1375 22.5125C21.8625 22.1375 23.0375 21.7875 24.5125 21.5C26.9884 21.1066 29.4931 20.9227 32 20.95V20.9625Z" stroke="black" stroke-width="0.075" stroke-linecap="round" stroke-linejoin="round"/>
<path fill-rule="evenodd" clip-rule="evenodd" d="M31.9501 34.8625C34.2251 34.9 36.45 34.9875 38.6125 35.3875L38.4626 35.6625C36.4626 35.2875 34.3125 35.1625 31.9625 35.1625C28.925 35.1375 25.875 35.425 23.2125 36.1875C22.375 36.425 20.9875 36.9625 20.8375 37.4125L20.6875 37.1625C20.7375 36.8875 21.5626 36.3375 23.1376 35.9125C26.1876 35.0375 29.0376 34.875 31.9501 34.8625ZM32.05 33.7125C34.4513 33.71 36.848 33.9192 39.2126 34.3375L39.05 34.625C36.7411 34.2014 34.3974 33.9964 32.05 34.0125C29.025 34.0125 25.8126 34.2375 22.8876 35.0875C21.9501 35.3625 20.3126 35.9625 20.2626 36.425L20.1125 36.15C20.1375 35.725 21.5501 35.1625 22.8251 34.8C25.7626 33.9375 28.9875 33.725 32.05 33.7125Z" fill="#FFFF00" stroke="black" stroke-width="0.075" stroke-linecap="round" stroke-linejoin="round"/>
<path fill-rule="evenodd" clip-rule="evenodd" d="M43.675 36.3125L42.7 37.85L39.8625 35.3375L32.5375 30.4L24.2625 25.8625L19.975 24.4L20.8875 22.7L21.2 22.5375L23.8625 23.2L32.6625 27.7375L37.7375 30.9375L42 34L43.7375 36L43.675 36.3125Z" fill="#FFFF00" stroke="black" stroke-width="0.075" stroke-linecap="round" stroke-linejoin="round"/>
<path fill-rule="evenodd" clip-rule="evenodd" d="M19.825 24.4374C20.575 23.9374 26.1 26.3874 31.9 29.8874C37.6625 33.3874 43.1875 37.3374 42.6875 38.0749L42.525 38.3374L42.45 38.3999C42.4625 38.3874 42.55 38.2749 42.45 38.0124C42.2 37.1999 38.275 34.0749 31.7875 30.1499C25.45 26.3874 20.175 24.1124 19.6625 24.7624L19.825 24.4374ZM43.875 36.2999C44.35 35.3499 39.225 31.4874 32.8625 27.7249C26.3625 24.0374 21.6625 21.8624 20.8 22.5124L20.625 22.8749C20.6166 22.8749 20.6333 22.8541 20.675 22.8124C20.825 22.6874 21.0875 22.6874 21.2 22.6874C22.675 22.7124 26.8875 24.6499 32.8 28.0374C35.4 29.5374 43.75 34.9124 43.7125 36.4124C43.7125 36.5374 43.725 36.5624 43.675 36.6374L43.8875 36.3124L43.875 36.2999Z" fill="#FFFF00" stroke="black" stroke-width="0.075" stroke-linecap="round" stroke-linejoin="round"/>
<path d="M24.0801 31.471C24.0843 32.5056 24.2925 33.5293 24.6929 34.4834C25.0933 35.4375 25.678 36.3032 26.4134 37.031C27.1417 37.7704 28.0091 38.3585 28.9656 38.7612C29.9221 39.164 30.9489 39.3735 31.9868 39.3776C33.0272 39.3805 34.0579 39.1769 35.0192 38.7787C35.9805 38.3804 36.8532 37.7955 37.5868 37.0576C38.3214 36.3272 38.9046 35.4588 39.3027 34.5024C39.7008 33.5459 39.9061 32.5203 39.9068 31.4843V20.9242L24.0801 20.8976V31.471Z" fill="white" stroke="black" stroke-width="0.0933336"/>
<path d="M24.4 31.4843C24.3999 32.4776 24.5979 33.4609 24.9826 34.3767C25.3672 35.2925 25.9307 36.1223 26.64 36.8176C28.0596 38.2446 29.9872 39.0502 32 39.0576C34.009 39.0573 35.9362 38.2615 37.3601 36.8443C38.067 36.1479 38.628 35.3176 39.0104 34.4018C39.3927 33.4861 39.5886 32.5033 39.5867 31.511V21.2443H24.4V31.4843ZM36.5334 24.3243V30.8443L36.5201 31.5243C36.5261 32.1202 36.411 32.7111 36.1818 33.2611C35.9526 33.8112 35.6141 34.309 35.1867 34.7243C34.3388 35.5751 33.1879 36.0547 31.9867 36.0576C30.7334 36.0576 29.6267 35.5243 28.8 34.6976C27.9492 33.8497 27.4696 32.6988 27.4667 31.4976V24.2976L36.5334 24.3243Z" fill="#FF0000" stroke="black" stroke-width="0.0666669"/>
<path d="M25.36 23.9242C25.3733 23.1909 25.8933 23.0176 25.8933 23.0176C25.9067 23.0176 26.4667 23.2042 26.4667 23.9376L25.36 23.9242Z" fill="#FFFF00"/>
<path d="M24.9067 23.0309L24.8134 23.8709H25.3734C25.3734 23.1776 25.9067 23.0709 25.9067 23.0709C25.92 23.0709 26.44 23.2176 26.4534 23.8709H27.0134L26.9067 23.0176L24.9067 23.0309ZM24.7734 23.8842H27.04C27.0845 23.8842 27.1111 23.9154 27.12 23.9776C27.12 24.0487 27.0934 24.0842 27.04 24.0842H24.7734C24.7289 24.0842 24.7022 24.0487 24.6934 23.9776C24.6934 23.9154 24.7245 23.8842 24.7867 23.8842H24.7734Z" fill="#FFFF00" stroke="black" stroke-width="0.0666669"/>
<path d="M25.6 23.8709C25.6 23.4309 25.9067 23.3109 25.9067 23.3109C25.9067 23.3109 26.2134 23.4443 26.2134 23.8709H25.6ZM24.8267 22.6709H27C27.0445 22.6798 27.0712 22.7154 27.08 22.7776C27.08 22.8221 27.0534 22.8487 27 22.8576H24.8267C24.7823 22.8576 24.7556 22.8265 24.7467 22.7643C24.7467 22.7198 24.7734 22.6932 24.8267 22.6843V22.6709ZM24.88 22.8709H26.9334C26.9778 22.8709 27.0045 22.9021 27.0134 22.9643C27.0223 23.0265 26.9956 23.0576 26.9334 23.0576H24.8667C24.8134 23.0576 24.7867 23.0265 24.7867 22.9643C24.7867 22.9021 24.8134 22.8709 24.8667 22.8709H24.88ZM25.5467 21.4576H25.7067V21.5643H25.8267V21.4576H26V21.5776H26.12V21.4443H26.28V21.7109C26.28 21.7643 26.2578 21.7909 26.2134 21.7909H25.6267C25.5823 21.7909 25.5556 21.7687 25.5467 21.7243V21.4576ZM26.16 21.8176L26.2 22.6709H25.6267L25.6667 21.8043H26.16" fill="#FFFF00"/>
<path d="M26.16 21.8176L26.2 22.6709H25.6267L25.6667 21.8043H26.16M25.6 23.8709C25.6 23.4309 25.9067 23.3109 25.9067 23.3109C25.9067 23.3109 26.2134 23.4443 26.2134 23.8709H25.6ZM24.8267 22.6709H27C27.0445 22.6798 27.0712 22.7154 27.08 22.7776C27.08 22.8221 27.0534 22.8487 27 22.8576H24.8267C24.7823 22.8576 24.7556 22.8265 24.7467 22.7643C24.7467 22.7198 24.7734 22.6932 24.8267 22.6843V22.6709ZM24.88 22.8709H26.9334C26.9778 22.8709 27.0045 22.9021 27.0134 22.9643C27.0223 23.0265 26.9956 23.0576 26.9334 23.0576H24.8667C24.8134 23.0576 24.7867 23.0265 24.7867 22.9643C24.7867 22.9021 24.8134 22.8709 24.8667 22.8709H24.88ZM25.5467 21.4576H25.7067V21.5643H25.8267V21.4576H26V21.5776H26.12V21.4443H26.28V21.7109C26.28 21.7643 26.2578 21.7909 26.2134 21.7909H25.6267C25.5823 21.7909 25.5556 21.7687 25.5467 21.7243V21.4576Z" stroke="black" stroke-width="0.0666669"/>
<path d="M25.4667 22.2176V22.6709H24.9333V22.2176H25.4667Z" fill="#FFFF00" stroke="black" stroke-width="0.0666669"/>
<path d="M26.88 22.2176V22.6709H26.3467V22.2176H26.88Z" fill="#FFFF00" stroke="black" stroke-width="0.0666669"/>
<path d="M24.8401 21.8709H25.0001V22.0042H25.1201V21.8709H25.2801V22.0042H25.4001V21.8709H25.5601V22.1376C25.5601 22.1909 25.5379 22.2176 25.4934 22.2176H24.9201C24.9017 22.2109 24.885 22.2003 24.8712 22.1865C24.8574 22.1727 24.8467 22.156 24.8401 22.1376V21.8709Z" fill="#FFFF00" stroke="black" stroke-width="0.0666669"/>
<path d="M26.2534 21.8709H26.4134V22.0042H26.5334V21.8709H26.6934V22.0042H26.8134V21.8709H26.9734V22.1376C26.9734 22.1909 26.9512 22.2176 26.9068 22.2176H26.3334C26.315 22.2109 26.2983 22.2003 26.2845 22.1865C26.2707 22.1727 26.2601 22.156 26.2534 22.1376V21.8709Z" fill="#FFFF00" stroke="black" stroke-width="0.0666669"/>
<path d="M25.8534 22.0843C25.8534 22.0043 25.9734 22.0043 25.9734 22.0843V22.2976H25.8534V22.0843Z" fill="#000001"/>
<path d="M25.1467 22.3776C25.1467 22.2976 25.2534 22.2976 25.2534 22.3776V22.5376H25.1467V22.3776Z" fill="#000001"/>
<path d="M26.5601 22.3776C26.5601 22.2976 26.6667 22.2976 26.6667 22.3776V22.5376H26.5601V22.3776Z" fill="#000001"/>
<path d="M25.36 30.0976C25.3733 29.3643 25.8933 29.191 25.8933 29.191C25.9067 29.191 26.4667 29.3776 26.4667 30.111L25.36 30.0976Z" fill="#FFFF00"/>
<path d="M24.9067 29.2043L24.8134 30.0443H25.3734C25.3734 29.351 25.9067 29.2443 25.9067 29.2443C25.92 29.2443 26.44 29.391 26.4534 30.0443H27.0134L26.9067 29.191L24.9067 29.2043ZM24.7734 30.0576H27.04C27.0845 30.0576 27.1111 30.0888 27.12 30.151C27.12 30.2221 27.0934 30.2576 27.04 30.2576H24.7734C24.7289 30.2576 24.7022 30.2221 24.6934 30.151C24.6934 30.0888 24.7245 30.0576 24.7867 30.0576H24.7734Z" fill="#FFFF00" stroke="black" stroke-width="0.0666669"/>
<path d="M25.6 30.0443C25.6 29.6043 25.9067 29.4843 25.9067 29.4843C25.9067 29.4843 26.2134 29.6176 26.2134 30.0443H25.6ZM24.8267 28.8443H27C27.0445 28.8532 27.0712 28.8887 27.08 28.951C27.08 28.9954 27.0534 29.0221 27 29.031H24.8267C24.7823 29.031 24.7556 28.9998 24.7467 28.9376C24.7467 28.8932 24.7734 28.8665 24.8267 28.8576V28.8443ZM24.88 29.0443H26.9334C26.9778 29.0443 27.0045 29.0754 27.0134 29.1376C27.0223 29.1998 26.9956 29.231 26.9334 29.231H24.8667C24.8134 29.231 24.7867 29.1998 24.7867 29.1376C24.7867 29.0754 24.8134 29.0443 24.8667 29.0443H24.88ZM25.5467 27.6309H25.7067V27.7376H25.8267V27.6309H26V27.7509H26.12V27.6176H26.28V27.8843C26.28 27.9376 26.2578 27.9643 26.2134 27.9643H25.6267C25.5823 27.9643 25.5556 27.9421 25.5467 27.8976V27.6309ZM26.16 27.9909L26.2 28.8443H25.6267L25.6667 27.9776H26.16" fill="#FFFF00"/>
<path d="M26.16 27.9909L26.2 28.8443H25.6267L25.6667 27.9776H26.16M25.6 30.0443C25.6 29.6043 25.9067 29.4843 25.9067 29.4843C25.9067 29.4843 26.2134 29.6176 26.2134 30.0443H25.6ZM24.8267 28.8443H27C27.0445 28.8532 27.0712 28.8887 27.08 28.951C27.08 28.9954 27.0534 29.0221 27 29.031H24.8267C24.7823 29.031 24.7556 28.9998 24.7467 28.9376C24.7467 28.8932 24.7734 28.8665 24.8267 28.8576V28.8443ZM24.88 29.0443H26.9334C26.9778 29.0443 27.0045 29.0754 27.0134 29.1376C27.0223 29.1998 26.9956 29.231 26.9334 29.231H24.8667C24.8134 29.231 24.7867 29.1998 24.7867 29.1376C24.7867 29.0754 24.8134 29.0443 24.8667 29.0443H24.88ZM25.5467 27.6309H25.7067V27.7376H25.8267V27.6309H26V27.7509H26.12V27.6176H26.28V27.8843C26.28 27.9376 26.2578 27.9643 26.2134 27.9643H25.6267C25.5823 27.9643 25.5556 27.9421 25.5467 27.8976V27.6309Z" stroke="black" stroke-width="0.0666669"/>
<path d="M25.4667 28.3909V28.8443H24.9333V28.3909H25.4667Z" fill="#FFFF00" stroke="black" stroke-width="0.0666669"/>
<path d="M26.88 28.3909V28.8443H26.3467V28.3909H26.88Z" fill="#FFFF00" stroke="black" stroke-width="0.0666669"/>
<path d="M24.8401 28.0443H25.0001V28.1776H25.1201V28.0443H25.2801V28.1776H25.4001V28.0443H25.5601V28.311C25.5601 28.3643 25.5379 28.391 25.4934 28.391H24.9201C24.9017 28.3843 24.885 28.3737 24.8712 28.3599C24.8574 28.3461 24.8467 28.3294 24.8401 28.311V28.0443Z" fill="#FFFF00" stroke="black" stroke-width="0.0666669"/>
<path d="M26.2534 28.0443H26.4134V28.1776H26.5334V28.0443H26.6934V28.1776H26.8134V28.0443H26.9734V28.311C26.9734 28.3643 26.9512 28.391 26.9068 28.391H26.3334C26.315 28.3843 26.2983 28.3737 26.2845 28.3599C26.2707 28.3461 26.2601 28.3294 26.2534 28.311V28.0443Z" fill="#FFFF00" stroke="black" stroke-width="0.0666669"/>
<path d="M25.8534 28.2576C25.8534 28.1776 25.9734 28.1776 25.9734 28.2576V28.471H25.8534V28.2576Z" fill="#000001"/>
<path d="M25.1467 28.551C25.1467 28.471 25.2534 28.471 25.2534 28.551V28.711H25.1467V28.551Z" fill="#000001"/>
<path d="M26.5601 28.551C26.5601 28.471 26.6667 28.471 26.6667 28.551V28.711H26.5601V28.551Z" fill="#000001"/>
<path d="M27.7663 36.5316C27.2553 36.0054 27.4987 35.5143 27.4987 35.5143C27.5081 35.5048 28.0352 35.239 28.5555 35.7557L27.7663 36.5316Z" fill="#FFFF00"/>
<path d="M26.813 36.2238L27.3433 36.8819L27.7379 36.4846C27.2459 35.996 27.546 35.5424 27.546 35.5424C27.5554 35.533 28.0259 35.2673 28.4989 35.7182L28.8935 35.3209L28.2128 34.7953L26.813 36.2238ZM27.3245 36.9197L28.9217 35.3113C28.953 35.2798 28.9939 35.2828 29.0443 35.3203C29.0948 35.3704 29.1012 35.4144 29.0636 35.4523L27.4664 37.0606C27.4351 37.0922 27.3911 37.086 27.3344 37.0422C27.2902 36.9984 27.2901 36.9544 27.3339 36.9102L27.3245 36.9197Z" fill="#FFFF00" stroke="black" stroke-width="0.0666669"/>
<path d="M27.8975 36.3237C27.5853 36.0137 27.7163 35.7115 27.7163 35.7115C27.7163 35.7115 28.027 35.5879 28.3297 35.8885L27.8975 36.3237ZM26.5011 36.0269L28.0325 34.4847C28.0702 34.4595 28.1142 34.4656 28.1646 34.5031C28.1961 34.5345 28.1963 34.5722 28.165 34.6163L26.6336 36.1584C26.6023 36.19 26.5614 36.187 26.511 36.1494C26.4794 36.1181 26.4793 36.0804 26.5106 36.0363L26.5011 36.0269ZM26.6806 36.13L28.1275 34.673C28.1588 34.6414 28.1997 34.6444 28.2501 34.682C28.3005 34.7195 28.3038 34.7604 28.2599 34.8045L26.8037 36.271C26.7661 36.3088 26.7252 36.3058 26.6811 36.262C26.6369 36.2181 26.6336 36.1773 26.6712 36.1394L26.6806 36.13ZM26.1475 34.661L26.2603 34.5475L26.3359 34.6227L26.4205 34.5375L26.3448 34.4624L26.4669 34.3394L26.5521 34.4239L26.6367 34.3388L26.542 34.2448L26.6548 34.1313L26.844 34.3192C26.8818 34.3568 26.8851 34.3913 26.8538 34.4229L26.4404 34.8391C26.4091 34.8707 26.3745 34.8739 26.3367 34.8489L26.1475 34.661ZM26.8351 34.4795L27.4688 35.0524L27.0648 35.4592L26.4781 34.8202L26.8257 34.4701" fill="#FFFF00"/>
<path d="M26.8351 34.4795L27.4688 35.0524L27.0648 35.4592L26.4781 34.8202L26.8257 34.4701M27.8975 36.3237C27.5853 36.0137 27.7163 35.7115 27.7163 35.7115C27.7163 35.7115 28.027 35.5879 28.3297 35.8885L27.8975 36.3237ZM26.5011 36.0269L28.0325 34.4847C28.0702 34.4595 28.1142 34.4656 28.1646 34.5031C28.1961 34.5345 28.1963 34.5722 28.165 34.6163L26.6336 36.1584C26.6023 36.19 26.5614 36.187 26.511 36.1494C26.4794 36.1181 26.4793 36.0804 26.5106 36.0363L26.5011 36.0269ZM26.6806 36.13L28.1275 34.673C28.1588 34.6414 28.1997 34.6444 28.2501 34.682C28.3005 34.7195 28.3038 34.7604 28.2599 34.8045L26.8037 36.271C26.7661 36.3088 26.7252 36.3058 26.6811 36.262C26.6369 36.2181 26.6336 36.1773 26.6712 36.1394L26.6806 36.13ZM26.1475 34.661L26.2603 34.5475L26.3359 34.6227L26.4205 34.5375L26.3448 34.4624L26.4669 34.3394L26.5521 34.4239L26.6367 34.3388L26.542 34.2448L26.6548 34.1313L26.844 34.3192C26.8818 34.3568 26.8851 34.3913 26.8538 34.4229L26.4404 34.8391C26.4091 34.8707 26.3745 34.8739 26.3367 34.8489L26.1475 34.661Z" stroke="black" stroke-width="0.0666669"/>
<path d="M26.6304 35.2533L26.9521 35.5728L26.5763 35.9512L26.2546 35.6318L26.6304 35.2533Z" fill="#FFFF00" stroke="black" stroke-width="0.0666669"/>
<path d="M27.6263 34.2505L27.948 34.5699L27.5722 34.9483L27.2505 34.6289L27.6263 34.2505Z" fill="#FFFF00" stroke="black" stroke-width="0.0666669"/>
<path d="M25.9429 35.4537L26.0556 35.3402L26.1502 35.4342L26.2348 35.349L26.1402 35.2551L26.2529 35.1415L26.3475 35.2355L26.4321 35.1503L26.3375 35.0564L26.4502 34.9428L26.6394 35.1307C26.6773 35.1683 26.6805 35.2029 26.6492 35.2344L26.2452 35.6412C26.2276 35.6496 26.2083 35.654 26.1887 35.654C26.1692 35.6541 26.1498 35.6499 26.1321 35.6416L25.9429 35.4537Z" fill="#FFFF00" stroke="black" stroke-width="0.0666669"/>
<path d="M26.9387 34.4509L27.0515 34.3373L27.1461 34.4313L27.2306 34.3461L27.136 34.2522L27.2488 34.1387L27.3434 34.2326L27.4279 34.1475L27.3333 34.0535L27.4461 33.94L27.6353 34.1279C27.6731 34.1655 27.6764 34.2 27.6451 34.2316L27.2411 34.6384C27.2234 34.6467 27.2041 34.6511 27.1846 34.6512C27.165 34.6512 27.1457 34.647 27.1279 34.6388L26.9387 34.4509Z" fill="#FFFF00" stroke="black" stroke-width="0.0666669"/>
<path d="M26.8082 34.885C26.7514 34.8286 26.836 34.7435 26.8928 34.7998L27.0441 34.9502L26.9596 35.0353L26.8082 34.885Z" fill="#000001"/>
<path d="M26.5184 35.5931C26.4616 35.5367 26.5368 35.4611 26.5936 35.5174L26.7071 35.6302L26.6319 35.7059L26.5184 35.5931Z" fill="#000001"/>
<path d="M27.5144 34.5903C27.4576 34.5339 27.5328 34.4582 27.5895 34.5146L27.7031 34.6273L27.6279 34.703L27.5144 34.5903Z" fill="#000001"/>
<path d="M31.4534 23.9243C31.4667 23.191 31.9867 23.0176 31.9867 23.0176C32 23.0176 32.56 23.2043 32.56 23.9376L31.4534 23.9243Z" fill="#FFFF00"/>
<path d="M31.0001 23.031L30.9067 23.871H31.4667C31.4667 23.1776 32.0001 23.071 32.0001 23.071C32.0134 23.071 32.5334 23.2176 32.5467 23.871H33.1068L33.0001 23.0176L31.0001 23.031ZM30.8667 23.8843H33.1334C33.1779 23.8843 33.2045 23.9154 33.2134 23.9776C33.2134 24.0488 33.1868 24.0843 33.1334 24.0843H30.8667C30.8223 24.0843 30.7956 24.0488 30.7867 23.9776C30.7867 23.9154 30.8179 23.8843 30.8801 23.8843H30.8667Z" fill="#FFFF00" stroke="black" stroke-width="0.0666669"/>
<path d="M31.6934 23.8709C31.6934 23.4309 32.0001 23.3109 32.0001 23.3109C32.0001 23.3109 32.3068 23.4443 32.3068 23.8709H31.6934ZM30.9201 22.6709H33.0934C33.1379 22.6798 33.1645 22.7154 33.1734 22.7776C33.1734 22.8221 33.1468 22.8487 33.0934 22.8576H30.9201C30.8756 22.8576 30.849 22.8265 30.8401 22.7643C30.8401 22.7198 30.8668 22.6932 30.9201 22.6843V22.6709ZM30.9734 22.8709H33.0268C33.0712 22.8709 33.0979 22.9021 33.1068 22.9643C33.1157 23.0265 33.089 23.0576 33.0268 23.0576H30.9601C30.9068 23.0576 30.8801 23.0265 30.8801 22.9643C30.8801 22.9021 30.9068 22.8709 30.9601 22.8709H30.9734ZM31.6401 21.4576H31.8001V21.5643H31.9201V21.4576H32.0934V21.5776H32.2134V21.4443H32.3734V21.7109C32.3734 21.7643 32.3512 21.7909 32.3068 21.7909H31.7201C31.6756 21.7909 31.649 21.7687 31.6401 21.7243V21.4576ZM32.2534 21.8176L32.2934 22.6709H31.7201L31.7601 21.8043H32.2534" fill="#FFFF00"/>
<path d="M32.2534 21.8176L32.2934 22.6709H31.7201L31.7601 21.8043H32.2534M31.6934 23.8709C31.6934 23.4309 32.0001 23.3109 32.0001 23.3109C32.0001 23.3109 32.3068 23.4443 32.3068 23.8709H31.6934ZM30.9201 22.6709H33.0934C33.1379 22.6798 33.1645 22.7154 33.1734 22.7776C33.1734 22.8221 33.1468 22.8487 33.0934 22.8576H30.9201C30.8756 22.8576 30.849 22.8265 30.8401 22.7643C30.8401 22.7198 30.8668 22.6932 30.9201 22.6843V22.6709ZM30.9734 22.8709H33.0268C33.0712 22.8709 33.0979 22.9021 33.1068 22.9643C33.1157 23.0265 33.089 23.0576 33.0268 23.0576H30.9601C30.9068 23.0576 30.8801 23.0265 30.8801 22.9643C30.8801 22.9021 30.9068 22.8709 30.9601 22.8709H30.9734ZM31.6401 21.4576H31.8001V21.5643H31.9201V21.4576H32.0934V21.5776H32.2134V21.4443H32.3734V21.7109C32.3734 21.7643 32.3512 21.7909 32.3068 21.7909H31.7201C31.6756 21.7909 31.649 21.7687 31.6401 21.7243V21.4576Z" stroke="black" stroke-width="0.0666669"/>
<path d="M31.5601 22.2176V22.6709H31.0267V22.2176H31.5601Z" fill="#FFFF00" stroke="black" stroke-width="0.0666669"/>
<path d="M32.9734 22.2176V22.6709H32.4401V22.2176H32.9734Z" fill="#FFFF00" stroke="black" stroke-width="0.0666669"/>
<path d="M30.9333 21.871H31.0933V22.0043H31.2133V21.871H31.3734V22.0043H31.4934V21.871H31.6534V22.1376C31.6534 22.191 31.6311 22.2176 31.5867 22.2176H31.0133C30.995 22.211 30.9783 22.2004 30.9644 22.1865C30.9506 22.1727 30.94 22.156 30.9333 22.1376V21.871Z" fill="#FFFF00" stroke="black" stroke-width="0.0666669"/>
<path d="M32.3468 21.871H32.5068V22.0043H32.6268V21.871H32.7868V22.0043H32.9068V21.871H33.0668V22.1376C33.0668 22.191 33.0446 22.2176 33.0001 22.2176H32.4268C32.4084 22.211 32.3917 22.2004 32.3779 22.1865C32.3641 22.1727 32.3535 22.156 32.3468 22.1376V21.871Z" fill="#FFFF00" stroke="black" stroke-width="0.0666669"/>
<path d="M31.9468 22.0843C31.9468 22.0043 32.0668 22.0043 32.0668 22.0843V22.2976H31.9468V22.0843Z" fill="#000001"/>
<path d="M31.2401 22.3776C31.2401 22.2976 31.3468 22.2976 31.3468 22.3776V22.5376H31.2401V22.3776Z" fill="#000001"/>
<path d="M32.6534 22.3776C32.6534 22.2976 32.7601 22.2976 32.7601 22.3776V22.5376H32.6534V22.3776Z" fill="#000001"/>
<path d="M38.6135 23.9242C38.6002 23.1909 38.0802 23.0176 38.0802 23.0176C38.0669 23.0176 37.5069 23.2042 37.5069 23.9376L38.6135 23.9242Z" fill="#FFFF00"/>
<path d="M39.0668 23.0309L39.1601 23.8709H38.6001C38.6001 23.1776 38.0668 23.0709 38.0668 23.0709C38.0535 23.0709 37.5335 23.2176 37.5201 23.8709H36.9601L37.0668 23.0176L39.0668 23.0309ZM39.2002 23.8842H36.9335C36.889 23.8842 36.8624 23.9154 36.8535 23.9776C36.8535 24.0487 36.8801 24.0842 36.9335 24.0842H39.2002C39.2446 24.0842 39.2713 24.0487 39.2802 23.9776C39.2802 23.9154 39.249 23.8842 39.1868 23.8842H39.2002Z" fill="#FFFF00" stroke="black" stroke-width="0.0666669"/>
<path d="M38.3735 23.8709C38.3735 23.4309 38.0668 23.3109 38.0668 23.3109C38.0668 23.3109 37.7601 23.4443 37.7601 23.8709H38.3735ZM39.1468 22.6709H36.9735C36.929 22.6798 36.9024 22.7154 36.8935 22.7776C36.8935 22.8221 36.9201 22.8487 36.9735 22.8576H39.1468C39.1913 22.8576 39.2179 22.8265 39.2268 22.7643C39.2268 22.7198 39.2001 22.6932 39.1468 22.6843V22.6709ZM39.0935 22.8709H37.0401C36.9957 22.8709 36.969 22.9021 36.9601 22.9643C36.9512 23.0265 36.9779 23.0576 37.0401 23.0576H39.1068C39.1601 23.0576 39.1868 23.0265 39.1868 22.9643C39.1868 22.9021 39.1601 22.8709 39.1068 22.8709H39.0935ZM38.4268 21.4576H38.2668V21.5643H38.1468V21.4576H37.9735V21.5776H37.8535V21.4443H37.6935V21.7109C37.6935 21.7643 37.7157 21.7909 37.7601 21.7909H38.3468C38.3912 21.7909 38.4179 21.7687 38.4268 21.7243V21.4576ZM37.8135 21.8176L37.7735 22.6709H38.3468L38.3068 21.8043H37.8135" fill="#FFFF00"/>
<path d="M37.8135 21.8176L37.7735 22.6709H38.3468L38.3068 21.8043H37.8135M38.3735 23.8709C38.3735 23.4309 38.0668 23.3109 38.0668 23.3109C38.0668 23.3109 37.7601 23.4443 37.7601 23.8709H38.3735ZM39.1468 22.6709H36.9735C36.929 22.6798 36.9024 22.7154 36.8935 22.7776C36.8935 22.8221 36.9201 22.8487 36.9735 22.8576H39.1468C39.1913 22.8576 39.2179 22.8265 39.2268 22.7643C39.2268 22.7198 39.2001 22.6932 39.1468 22.6843V22.6709ZM39.0935 22.8709H37.0401C36.9957 22.8709 36.969 22.9021 36.9601 22.9643C36.9512 23.0265 36.9779 23.0576 37.0401 23.0576H39.1068C39.1601 23.0576 39.1868 23.0265 39.1868 22.9643C39.1868 22.9021 39.1601 22.8709 39.1068 22.8709H39.0935ZM38.4268 21.4576H38.2668V21.5643H38.1468V21.4576H37.9735V21.5776H37.8535V21.4443H37.6935V21.7109C37.6935 21.7643 37.7157 21.7909 37.7601 21.7909H38.3468C38.3912 21.7909 38.4179 21.7687 38.4268 21.7243V21.4576Z" stroke="black" stroke-width="0.0666669"/>
<path d="M38.5068 22.2176V22.6709H39.0402V22.2176H38.5068Z" fill="#FFFF00" stroke="black" stroke-width="0.0666669"/>
<path d="M37.0935 22.2176V22.6709H37.6268V22.2176H37.0935Z" fill="#FFFF00" stroke="black" stroke-width="0.0666669"/>
<path d="M39.1335 21.8709H38.9735V22.0042H38.8535V21.8709H38.6935V22.0042H38.5735V21.8709H38.4135V22.1376C38.4135 22.1909 38.4358 22.2176 38.4802 22.2176H39.0535C39.0719 22.2109 39.0886 22.2003 39.1025 22.1865C39.1163 22.1727 39.1269 22.156 39.1335 22.1376V21.8709Z" fill="#FFFF00" stroke="black" stroke-width="0.0666669"/>
<path d="M37.7201 21.8709H37.5601V22.0042H37.4401V21.8709H37.2801V22.0042H37.1601V21.8709H37.0001V22.1376C37.0001 22.1909 37.0223 22.2176 37.0668 22.2176H37.6401C37.6585 22.2109 37.6752 22.2003 37.689 22.1865C37.7028 22.1727 37.7134 22.156 37.7201 22.1376V21.8709Z" fill="#FFFF00" stroke="black" stroke-width="0.0666669"/>
<path d="M38.1201 22.0843C38.1201 22.0043 38.0001 22.0043 38.0001 22.0843V22.2976H38.1201V22.0843Z" fill="#000001"/>
<path d="M38.8268 22.3776C38.8268 22.2976 38.7201 22.2976 38.7201 22.3776V22.5376H38.8268V22.3776Z" fill="#000001"/>
<path d="M37.4135 22.3776C37.4135 22.2976 37.3068 22.2976 37.3068 22.3776V22.5376H37.4135V22.3776Z" fill="#000001"/>
<path d="M38.6135 30.0976C38.6002 29.3643 38.0802 29.191 38.0802 29.191C38.0669 29.191 37.5069 29.3776 37.5069 30.111L38.6135 30.0976Z" fill="#FFFF00"/>
<path d="M39.0668 29.2043L39.1601 30.0443H38.6001C38.6001 29.351 38.0668 29.2443 38.0668 29.2443C38.0535 29.2443 37.5335 29.391 37.5201 30.0443H36.9601L37.0668 29.191L39.0668 29.2043ZM39.2002 30.0576H36.9335C36.889 30.0576 36.8624 30.0888 36.8535 30.151C36.8535 30.2221 36.8801 30.2576 36.9335 30.2576H39.2002C39.2446 30.2576 39.2713 30.2221 39.2802 30.151C39.2802 30.0888 39.249 30.0576 39.1868 30.0576H39.2002Z" fill="#FFFF00" stroke="black" stroke-width="0.0666669"/>
<path d="M38.3735 30.0443C38.3735 29.6043 38.0668 29.4843 38.0668 29.4843C38.0668 29.4843 37.7601 29.6176 37.7601 30.0443H38.3735ZM39.1468 28.8443H36.9735C36.929 28.8532 36.9024 28.8887 36.8935 28.951C36.8935 28.9954 36.9201 29.0221 36.9735 29.031H39.1468C39.1913 29.031 39.2179 28.9998 39.2268 28.9376C39.2268 28.8932 39.2001 28.8665 39.1468 28.8576V28.8443ZM39.0935 29.0443H37.0401C36.9957 29.0443 36.969 29.0754 36.9601 29.1376C36.9512 29.1998 36.9779 29.231 37.0401 29.231H39.1068C39.1601 29.231 39.1868 29.1998 39.1868 29.1376C39.1868 29.0754 39.1601 29.0443 39.1068 29.0443H39.0935ZM38.4268 27.6309H38.2668V27.7376H38.1468V27.6309H37.9735V27.7509H37.8535V27.6176H37.6935V27.8843C37.6935 27.9376 37.7157 27.9643 37.7601 27.9643H38.3468C38.3912 27.9643 38.4179 27.9421 38.4268 27.8976V27.6309ZM37.8135 27.9909L37.7735 28.8443H38.3468L38.3068 27.9776H37.8135" fill="#FFFF00"/>
<path d="M37.8135 27.9909L37.7735 28.8443H38.3468L38.3068 27.9776H37.8135M38.3735 30.0443C38.3735 29.6043 38.0668 29.4843 38.0668 29.4843C38.0668 29.4843 37.7601 29.6176 37.7601 30.0443H38.3735ZM39.1468 28.8443H36.9735C36.929 28.8532 36.9024 28.8887 36.8935 28.951C36.8935 28.9954 36.9201 29.0221 36.9735 29.031H39.1468C39.1913 29.031 39.2179 28.9998 39.2268 28.9376C39.2268 28.8932 39.2001 28.8665 39.1468 28.8576V28.8443ZM39.0935 29.0443H37.0401C36.9957 29.0443 36.969 29.0754 36.9601 29.1376C36.9512 29.1998 36.9779 29.231 37.0401 29.231H39.1068C39.1601 29.231 39.1868 29.1998 39.1868 29.1376C39.1868 29.0754 39.1601 29.0443 39.1068 29.0443H39.0935ZM38.4268 27.6309H38.2668V27.7376H38.1468V27.6309H37.9735V27.7509H37.8535V27.6176H37.6935V27.8843C37.6935 27.9376 37.7157 27.9643 37.7601 27.9643H38.3468C38.3912 27.9643 38.4179 27.9421 38.4268 27.8976V27.6309Z" stroke="black" stroke-width="0.0666669"/>
<path d="M38.5068 28.3909V28.8443H39.0402V28.3909H38.5068Z" fill="#FFFF00" stroke="black" stroke-width="0.0666669"/>
<path d="M37.0935 28.3909V28.8443H37.6268V28.3909H37.0935Z" fill="#FFFF00" stroke="black" stroke-width="0.0666669"/>
<path d="M39.1335 28.0443H38.9735V28.1776H38.8535V28.0443H38.6935V28.1776H38.5735V28.0443H38.4135V28.311C38.4135 28.3643 38.4358 28.391 38.4802 28.391H39.0535C39.0719 28.3843 39.0886 28.3737 39.1025 28.3599C39.1163 28.3461 39.1269 28.3294 39.1335 28.311V28.0443Z" fill="#FFFF00" stroke="black" stroke-width="0.0666669"/>
<path d="M37.7201 28.0443H37.5601V28.1776H37.4401V28.0443H37.2801V28.1776H37.1601V28.0443H37.0001V28.311C37.0001 28.3643 37.0223 28.391 37.0668 28.391H37.6401C37.6585 28.3843 37.6752 28.3737 37.689 28.3599C37.7028 28.3461 37.7134 28.3294 37.7201 28.311V28.0443Z" fill="#FFFF00" stroke="black" stroke-width="0.0666669"/>
<path d="M38.1201 28.2576C38.1201 28.1776 38.0001 28.1776 38.0001 28.2576V28.471H38.1201V28.2576Z" fill="#000001"/>
<path d="M38.8268 28.551C38.8268 28.471 38.7201 28.471 38.7201 28.551V28.711H38.8268V28.551Z" fill="#000001"/>
<path d="M37.4135 28.551C37.4135 28.471 37.3068 28.471 37.3068 28.551V28.711H37.4135V28.551Z" fill="#000001"/>
<path d="M36.2072 36.5316C36.7182 36.0054 36.4748 35.5143 36.4748 35.5143C36.4654 35.5048 35.9383 35.239 35.418 35.7557L36.2072 36.5316Z" fill="#FFFF00"/>
<path d="M37.1605 36.2238L36.6303 36.8819L36.2357 36.4846C36.7276 35.996 36.4275 35.5424 36.4275 35.5424C36.4181 35.533 35.9476 35.2673 35.4747 35.7182L35.0801 35.3209L35.7607 34.7953L37.1605 36.2238ZM36.649 36.9197L35.0518 35.3113C35.0205 35.2798 34.9796 35.2828 34.9292 35.3203C34.8787 35.3704 34.8723 35.4144 34.9099 35.4523L36.5071 37.0606C36.5384 37.0922 36.5824 37.086 36.6391 37.0422C36.6833 36.9984 36.6834 36.9544 36.6396 36.9102L36.649 36.9197Z" fill="#FFFF00" stroke="black" stroke-width="0.0666669"/>
<path d="M36.076 36.3237C36.3882 36.0137 36.2573 35.7115 36.2573 35.7115C36.2573 35.7115 35.9466 35.5879 35.6438 35.8885L36.076 36.3237ZM37.4724 36.0269L35.941 34.4847C35.9034 34.4595 35.8593 34.4656 35.8089 34.5031C35.7774 34.5345 35.7773 34.5722 35.8085 34.6163L37.3399 36.1584C37.3713 36.19 37.4121 36.187 37.4625 36.1494C37.4941 36.1181 37.4942 36.0804 37.4629 36.0363L37.4724 36.0269ZM37.2929 36.13L35.846 34.673C35.8147 34.6414 35.7739 34.6444 35.7234 34.682C35.673 34.7195 35.6697 34.7604 35.7136 34.8045L37.1698 36.271C37.2074 36.3088 37.2483 36.3058 37.2924 36.262C37.3366 36.2181 37.3399 36.1773 37.3023 36.1394L37.2929 36.13ZM37.826 34.661L37.7133 34.5475L37.6376 34.6227L37.553 34.5375L37.6287 34.4624L37.5066 34.3394L37.4214 34.4239L37.3369 34.3388L37.4315 34.2448L37.3187 34.1313L37.1295 34.3192C37.0917 34.3568 37.0884 34.3913 37.1197 34.4229L37.5331 34.8391C37.5644 34.8707 37.599 34.8739 37.6368 34.8489L37.826 34.661ZM37.1384 34.4795L36.5047 35.0524L36.9087 35.4592L37.4955 34.8202L37.1478 34.4701" fill="#FFFF00"/>
<path d="M37.1384 34.4795L36.5047 35.0524L36.9087 35.4592L37.4955 34.8202L37.1478 34.4701M36.076 36.3237C36.3882 36.0137 36.2573 35.7115 36.2573 35.7115C36.2573 35.7115 35.9466 35.5879 35.6438 35.8885L36.076 36.3237ZM37.4724 36.0269L35.941 34.4847C35.9034 34.4595 35.8593 34.4656 35.8089 34.5031C35.7774 34.5345 35.7773 34.5722 35.8085 34.6163L37.3399 36.1584C37.3713 36.19 37.4121 36.187 37.4625 36.1494C37.4941 36.1181 37.4942 36.0804 37.4629 36.0363L37.4724 36.0269ZM37.2929 36.13L35.846 34.673C35.8147 34.6414 35.7739 34.6444 35.7234 34.682C35.673 34.7195 35.6697 34.7604 35.7136 34.8045L37.1698 36.271C37.2074 36.3088 37.2483 36.3058 37.2924 36.262C37.3366 36.2181 37.3399 36.1773 37.3023 36.1394L37.2929 36.13ZM37.826 34.661L37.7133 34.5475L37.6376 34.6227L37.553 34.5375L37.6287 34.4624L37.5066 34.3394L37.4214 34.4239L37.3369 34.3388L37.4315 34.2448L37.3187 34.1313L37.1295 34.3192C37.0917 34.3568 37.0884 34.3913 37.1197 34.4229L37.5331 34.8391C37.5644 34.8707 37.599 34.8739 37.6368 34.8489L37.826 34.661Z" stroke="black" stroke-width="0.0666669"/>
<path d="M37.3431 35.2533L37.0214 35.5728L37.3972 35.9512L37.7189 35.6318L37.3431 35.2533Z" fill="#FFFF00" stroke="black" stroke-width="0.0666669"/>
<path d="M36.3472 34.2505L36.0255 34.5699L36.4013 34.9483L36.723 34.6289L36.3472 34.2505Z" fill="#FFFF00" stroke="black" stroke-width="0.0666669"/>
<path d="M38.0306 35.4537L37.9179 35.3402L37.8233 35.4342L37.7387 35.349L37.8333 35.2551L37.7206 35.1415L37.626 35.2355L37.5414 35.1503L37.636 35.0564L37.5233 34.9428L37.3341 35.1307C37.2962 35.1683 37.293 35.2029 37.3243 35.2344L37.7283 35.6412C37.746 35.6496 37.7653 35.654 37.7848 35.654C37.8044 35.6541 37.8237 35.6499 37.8414 35.6416L38.0306 35.4537Z" fill="#FFFF00" stroke="black" stroke-width="0.0666669"/>
<path d="M37.0348 34.4509L36.922 34.3373L36.8274 34.4313L36.7429 34.3461L36.8375 34.2522L36.7247 34.1387L36.6301 34.2326L36.5456 34.1475L36.6402 34.0535L36.5275 33.94L36.3382 34.1279C36.3004 34.1655 36.2971 34.2 36.3284 34.2316L36.7324 34.6384C36.7501 34.6467 36.7694 34.6511 36.789 34.6512C36.8085 34.6512 36.8278 34.647 36.8456 34.6388L37.0348 34.4509Z" fill="#FFFF00" stroke="black" stroke-width="0.0666669"/>
<path d="M37.1653 34.885C37.2221 34.8286 37.1375 34.7435 37.0808 34.7998L36.9294 34.9502L37.0139 35.0353L37.1653 34.885Z" fill="#000001"/>
<path d="M37.4551 35.5931C37.5119 35.5367 37.4367 35.4611 37.3799 35.5174L37.2664 35.6302L37.3416 35.7059L37.4551 35.5931Z" fill="#000001"/>
<path d="M36.4591 34.5903C36.5159 34.5339 36.4407 34.4582 36.384 34.5146L36.2704 34.6273L36.3456 34.703L36.4591 34.5903Z" fill="#000001"/>
<path d="M31.0135 30.3243C31.0069 30.6064 31.1123 30.8797 31.3068 31.0843C31.3948 31.1852 31.5034 31.266 31.6253 31.3212C31.7473 31.3764 31.8796 31.4047 32.0135 31.4043C32.2979 31.3865 32.5335 31.2798 32.7201 31.0843C32.9146 30.8797 33.0201 30.6064 33.0135 30.3243V28.8843H31.0135V30.3243Z" fill="#003399"/>
<path d="M31.4802 29.631C31.5906 29.631 31.6802 29.5414 31.6802 29.431C31.6802 29.3205 31.5906 29.231 31.4802 29.231C31.3697 29.231 31.2802 29.3205 31.2802 29.431C31.2802 29.5414 31.3697 29.631 31.4802 29.631Z" fill="white"/>
<path d="M32.5868 29.631C32.6973 29.631 32.7868 29.5414 32.7868 29.431C32.7868 29.3205 32.6973 29.231 32.5868 29.231C32.4764 29.231 32.3868 29.3205 32.3868 29.431C32.3868 29.5414 32.4764 29.631 32.5868 29.631Z" fill="white"/>
<path d="M32.0268 30.1643C32.1372 30.1643 32.2268 30.0747 32.2268 29.9643C32.2268 29.8538 32.1372 29.7643 32.0268 29.7643C31.9163 29.7643 31.8268 29.8538 31.8268 29.9643C31.8268 30.0747 31.9163 30.1643 32.0268 30.1643Z" fill="white"/>
<path d="M31.4802 30.7243C31.5906 30.7243 31.6802 30.6347 31.6802 30.5243C31.6802 30.4138 31.5906 30.3243 31.4802 30.3243C31.3697 30.3243 31.2802 30.4138 31.2802 30.5243C31.2802 30.6347 31.3697 30.7243 31.4802 30.7243Z" fill="white"/>
<path d="M32.5868 30.7243C32.6973 30.7243 32.7868 30.6347 32.7868 30.5243C32.7868 30.4138 32.6973 30.3243 32.5868 30.3243C32.4764 30.3243 32.3868 30.4138 32.3868 30.5243C32.3868 30.6347 32.4764 30.7243 32.5868 30.7243Z" fill="white"/>
<path d="M31.0135 26.8576C31.0069 27.1398 31.1123 27.4131 31.3068 27.6176C31.3948 27.7185 31.5034 27.7993 31.6253 27.8545C31.7473 27.9097 31.8796 27.9381 32.0135 27.9376C32.2979 27.9198 32.5335 27.8132 32.7201 27.6176C32.9146 27.4131 33.0201 27.1398 33.0135 26.8576V25.4176H31.0135V26.8576Z" fill="#003399"/>
<path d="M31.4802 26.1643C31.5906 26.1643 31.6802 26.0747 31.6802 25.9643C31.6802 25.8538 31.5906 25.7643 31.4802 25.7643C31.3697 25.7643 31.2802 25.8538 31.2802 25.9643C31.2802 26.0747 31.3697 26.1643 31.4802 26.1643Z" fill="white"/>
<path d="M32.5868 26.1643C32.6973 26.1643 32.7868 26.0747 32.7868 25.9643C32.7868 25.8538 32.6973 25.7643 32.5868 25.7643C32.4764 25.7643 32.3868 25.8538 32.3868 25.9643C32.3868 26.0747 32.4764 26.1643 32.5868 26.1643Z" fill="white"/>
<path d="M32.0268 26.6976C32.1372 26.6976 32.2268 26.6081 32.2268 26.4976C32.2268 26.3872 32.1372 26.2976 32.0268 26.2976C31.9163 26.2976 31.8268 26.3872 31.8268 26.4976C31.8268 26.6081 31.9163 26.6976 32.0268 26.6976Z" fill="white"/>
<path d="M31.4802 27.2576C31.5906 27.2576 31.6802 27.1681 31.6802 27.0576C31.6802 26.9471 31.5906 26.8576 31.4802 26.8576C31.3697 26.8576 31.2802 26.9471 31.2802 27.0576C31.2802 27.1681 31.3697 27.2576 31.4802 27.2576Z" fill="white"/>
<path d="M32.5868 27.2576C32.6973 27.2576 32.7868 27.1681 32.7868 27.0576C32.7868 26.9471 32.6973 26.8576 32.5868 26.8576C32.4764 26.8576 32.3868 26.9471 32.3868 27.0576C32.3868 27.1681 32.4764 27.2576 32.5868 27.2576Z" fill="white"/>
<path d="M28.24 30.3243C28.2334 30.6064 28.3389 30.8797 28.5334 31.0843C28.6213 31.1852 28.73 31.266 28.8519 31.3212C28.9738 31.3764 29.1062 31.4047 29.24 31.4043C29.5245 31.3865 29.76 31.2798 29.9467 31.0843C30.1412 30.8797 30.2467 30.6064 30.24 30.3243V28.8843H28.24V30.3243Z" fill="#003399"/>
<path d="M28.7067 29.631C28.8172 29.631 28.9067 29.5414 28.9067 29.431C28.9067 29.3205 28.8172 29.231 28.7067 29.231C28.5963 29.231 28.5067 29.3205 28.5067 29.431C28.5067 29.5414 28.5963 29.631 28.7067 29.631Z" fill="white"/>
<path d="M29.8134 29.631C29.9239 29.631 30.0134 29.5414 30.0134 29.431C30.0134 29.3205 29.9239 29.231 29.8134 29.231C29.7029 29.231 29.6134 29.3205 29.6134 29.431C29.6134 29.5414 29.7029 29.631 29.8134 29.631Z" fill="white"/>
<path d="M29.2533 30.1643C29.3638 30.1643 29.4533 30.0747 29.4533 29.9643C29.4533 29.8538 29.3638 29.7643 29.2533 29.7643C29.1429 29.7643 29.0533 29.8538 29.0533 29.9643C29.0533 30.0747 29.1429 30.1643 29.2533 30.1643Z" fill="white"/>
<path d="M28.7067 30.7243C28.8172 30.7243 28.9067 30.6347 28.9067 30.5243C28.9067 30.4138 28.8172 30.3243 28.7067 30.3243C28.5963 30.3243 28.5067 30.4138 28.5067 30.5243C28.5067 30.6347 28.5963 30.7243 28.7067 30.7243Z" fill="white"/>
<path d="M29.8134 30.7243C29.9239 30.7243 30.0134 30.6347 30.0134 30.5243C30.0134 30.4138 29.9239 30.3243 29.8134 30.3243C29.7029 30.3243 29.6134 30.4138 29.6134 30.5243C29.6134 30.6347 29.7029 30.7243 29.8134 30.7243Z" fill="white"/>
<path d="M33.7868 30.3243C33.7802 30.6064 33.8857 30.8797 34.0801 31.0843C34.1681 31.1852 34.2767 31.266 34.3986 31.3212C34.5206 31.3764 34.6529 31.4047 34.7868 31.4043C35.0712 31.3865 35.3068 31.2798 35.4935 31.0843C35.6879 30.8797 35.7934 30.6064 35.7868 30.3243V28.8843H33.7868V30.3243Z" fill="#003399"/>
<path d="M34.2535 29.631C34.3639 29.631 34.4535 29.5414 34.4535 29.431C34.4535 29.3205 34.3639 29.231 34.2535 29.231C34.143 29.231 34.0535 29.3205 34.0535 29.431C34.0535 29.5414 34.143 29.631 34.2535 29.631Z" fill="white"/>
<path d="M35.3602 29.631C35.4706 29.631 35.5602 29.5414 35.5602 29.431C35.5602 29.3205 35.4706 29.231 35.3602 29.231C35.2497 29.231 35.1602 29.3205 35.1602 29.431C35.1602 29.5414 35.2497 29.631 35.3602 29.631Z" fill="white"/>
<path d="M34.8001 30.1643C34.9106 30.1643 35.0001 30.0747 35.0001 29.9643C35.0001 29.8538 34.9106 29.7643 34.8001 29.7643C34.6896 29.7643 34.6001 29.8538 34.6001 29.9643C34.6001 30.0747 34.6896 30.1643 34.8001 30.1643Z" fill="white"/>
<path d="M34.2535 30.7243C34.3639 30.7243 34.4535 30.6347 34.4535 30.5243C34.4535 30.4138 34.3639 30.3243 34.2535 30.3243C34.143 30.3243 34.0535 30.4138 34.0535 30.5243C34.0535 30.6347 34.143 30.7243 34.2535 30.7243Z" fill="white"/>
<path d="M35.3602 30.7243C35.4706 30.7243 35.5602 30.6347 35.5602 30.5243C35.5602 30.4138 35.4706 30.3243 35.3602 30.3243C35.2497 30.3243 35.1602 30.4138 35.1602 30.5243C35.1602 30.6347 35.2497 30.7243 35.3602 30.7243Z" fill="white"/>
<path d="M31.0135 33.7643C31.0069 34.0464 31.1123 34.3197 31.3068 34.5243C31.3948 34.6252 31.5034 34.706 31.6253 34.7612C31.7473 34.8164 31.8796 34.8447 32.0135 34.8443C32.2979 34.8265 32.5335 34.7198 32.7201 34.5243C32.9146 34.3197 33.0201 34.0464 33.0135 33.7643V32.3243H31.0135V33.7643Z" fill="#003399"/>
<path d="M31.4802 33.071C31.5906 33.071 31.6802 32.9814 31.6802 32.871C31.6802 32.7605 31.5906 32.671 31.4802 32.671C31.3697 32.671 31.2802 32.7605 31.2802 32.871C31.2802 32.9814 31.3697 33.071 31.4802 33.071Z" fill="white"/>
<path d="M32.5868 33.071C32.6973 33.071 32.7868 32.9814 32.7868 32.871C32.7868 32.7605 32.6973 32.671 32.5868 32.671C32.4764 32.671 32.3868 32.7605 32.3868 32.871C32.3868 32.9814 32.4764 33.071 32.5868 33.071Z" fill="white"/>
<path d="M32.0268 33.6043C32.1372 33.6043 32.2268 33.5147 32.2268 33.4043C32.2268 33.2938 32.1372 33.2043 32.0268 33.2043C31.9163 33.2043 31.8268 33.2938 31.8268 33.4043C31.8268 33.5147 31.9163 33.6043 32.0268 33.6043Z" fill="white"/>
<path d="M31.4802 34.1643C31.5906 34.1643 31.6802 34.0747 31.6802 33.9643C31.6802 33.8538 31.5906 33.7643 31.4802 33.7643C31.3697 33.7643 31.2802 33.8538 31.2802 33.9643C31.2802 34.0747 31.3697 34.1643 31.4802 34.1643Z" fill="white"/>
<path d="M32.5868 34.1643C32.6973 34.1643 32.7868 34.0747 32.7868 33.9643C32.7868 33.8538 32.6973 33.7643 32.5868 33.7643C32.4764 33.7643 32.3868 33.8538 32.3868 33.9643C32.3868 34.0747 32.4764 34.1643 32.5868 34.1643Z" fill="white"/>
</svg>
