<svg width="80" height="60" viewBox="0 0 80 60" fill="none" xmlns="http://www.w3.org/2000/svg">
<g clip-path="url(#clip0_1671_586)">
<path d="M0 0H80.0125V60H0V0Z" fill="#C8102E"/>
<path d="M25.7125 0H34.2875V60H25.7125V0Z" fill="white"/>
<path d="M0 25.7125H80.0125V34.2875H0V25.7125Z" fill="white"/>
<g clip-path="url(#clip1_1671_586)">
<path fill-rule="evenodd" clip-rule="evenodd" d="M0 0H80V6.6625H0V0Z" fill="#0D5EAF"/>
<path fill-rule="evenodd" clip-rule="evenodd" d="M0 6.66248H80V13.3375H0V6.66248Z" fill="white"/>
<path fill-rule="evenodd" clip-rule="evenodd" d="M0 13.3375H80V20H0V13.3375Z" fill="#0D5EAF"/>
<path fill-rule="evenodd" clip-rule="evenodd" d="M0 20H80V26.6625H0V20Z" fill="white"/>
<path d="M0 0H33.3375V33.3375H0V0Z" fill="#0D5EAF"/>
<path fill-rule="evenodd" clip-rule="evenodd" d="M0 26.6625H80V33.3375H0V26.6625Z" fill="#0D5EAF"/>
<path fill-rule="evenodd" clip-rule="evenodd" d="M0 33.3375H80V40H0V33.3375Z" fill="white"/>
<path fill-rule="evenodd" clip-rule="evenodd" d="M0 40H80V46.6625H0V40Z" fill="#0D5EAF"/>
<path fill-rule="evenodd" clip-rule="evenodd" d="M0 46.6625H80V53.3375H0V46.6625Z" fill="white"/>
<path fill-rule="evenodd" clip-rule="evenodd" d="M13.3375 0H20V33.3375H13.3375V0Z" fill="white"/>
<path fill-rule="evenodd" clip-rule="evenodd" d="M0 13.3375H33.3375V20H0V13.3375Z" fill="white"/>
<path d="M0 53.3375H80V60H0V53.3375Z" fill="#0D5EAF"/>
</g>
<g clip-path="url(#clip2_1671_586)">
<path d="M0 0H80V60H0V0Z" fill="white"/>
<path d="M0 21.8125H80V38.1875H0V21.8125Z" fill="#002F6C"/>
<path d="M21.9375 0H38.3V60H21.925L21.9375 0Z" fill="#002F6C"/>
</g>
<g clip-path="url(#clip3_1671_586)">
<path d="M0 0H80V60H0V0Z" fill="#005293"/>
<path d="M22 0V24H0V36H22V60H34V36H80V24H34V0H22Z" fill="#FECB00"/>
</g>
<g clip-path="url(#clip4_1671_586)">
<path d="M0 0H80V30H0V0Z" fill="white"/>
<path d="M0 30H80V60H0V30Z" fill="#D7141A"/>
<path d="M45 30L0 0V60L45 30Z" fill="#11457E"/>
</g>
<g clip-path="url(#clip5_1671_586)">
<path d="M0 0H80V60H0V0Z" fill="#EE1C25"/>
<path d="M0 0H80V40H0V0Z" fill="#0B4EA2"/>
<path d="M0 0H80V20H0V0Z" fill="white"/>
<path d="M29.125 46.35C23.75 43.7625 16.05 38.6125 16.05 28.45C16.05 18.275 16.55 13.65 16.55 13.65H41.7126C41.7126 13.65 42.2001 18.275 42.2001 28.45C42.2001 38.625 34.5 43.75 29.125 46.35Z" fill="white"/>
<path d="M29.125 45C24.1875 42.625 17.125 37.9 17.125 28.575C17.125 19.25 17.575 15 17.575 15H40.675C40.675 15 41.1125 19.25 41.1125 28.575C41.125 37.9125 34.0625 42.625 29.125 45Z" fill="#EE1C25"/>
<path d="M30.175 26.125C31.5125 26.15 34.125 26.2 36.4375 25.425C36.4375 25.425 36.3875 26.2625 36.3875 27.225C36.3875 28.1875 36.45 29.025 36.45 29.025C34.325 28.3125 31.6875 28.3 30.175 28.3125V33.4625H28.075V28.3125C26.575 28.3 23.9375 28.3125 21.8125 29.025C21.8125 29.025 21.875 28.1875 21.875 27.225C21.875 26.2625 21.8125 25.425 21.8125 25.425C24.125 26.2 26.7375 26.15 28.0625 26.125V22.8875C26.85 22.8875 25.1 22.9375 23.1125 23.6C23.1125 23.6 23.175 22.775 23.175 21.8C23.175 20.8375 23.1125 20 23.1125 20C25.1 20.6625 26.85 20.725 28.0625 20.7125C28 18.6625 27.4 16.0875 27.4 16.0875C27.4 16.0875 28.6375 16.175 29.125 16.175C29.6125 16.175 30.85 16.0875 30.85 16.0875C30.85 16.0875 30.25 18.6625 30.1875 20.7125C31.4 20.725 33.15 20.6625 35.1375 20C35.1375 20 35.075 20.8375 35.075 21.8C35.075 22.7625 35.1375 23.6 35.1375 23.6C33.5356 23.0835 31.8576 22.8426 30.175 22.8875V26.1375V26.125Z" fill="white"/>
<path d="M29.125 32.9125C26.6375 32.9125 25.3125 36.35 25.3125 36.35C25.3125 36.35 24.5625 34.725 22.5375 34.725C21.1625 34.725 20.1625 35.9375 19.5125 37.075C22.0125 41.0375 26 43.4875 29.125 45C32.25 43.5 36.2499 41.0375 38.7374 37.075C38.0874 35.95 37.0875 34.725 35.7125 34.725C33.6875 34.725 32.9375 36.35 32.9375 36.35C32.9375 36.35 31.625 32.9125 29.125 32.9125Z" fill="#0B4EA2"/>
</g>
<g clip-path="url(#clip6_1671_586)">
<mask id="mask0_1671_586" style="mask-type:luminance" maskUnits="userSpaceOnUse" x="-1" y="0" width="81" height="60">
<path d="M0.00463872 0H79.9968V60H-0.00708008L0.00463872 0Z" fill="white"/>
</mask>
<g mask="url(#mask0_1671_586)">
<path fill-rule="evenodd" clip-rule="evenodd" d="M-5.50317 0H114.497V60H-5.50317V0Z" fill="white"/>
<path fill-rule="evenodd" clip-rule="evenodd" d="M-5.50317 39.9961H114.497V60H-5.50317V39.9961Z" fill="#D50000"/>
<path fill-rule="evenodd" clip-rule="evenodd" d="M-5.50317 20.0039H114.497V39.9961H-5.50317V20.0039Z" fill="#0000BF"/>
<path fill-rule="evenodd" clip-rule="evenodd" d="M28.5281 10.8984C28.0593 18.1172 27.7781 22.0781 26.6882 23.9062C25.4929 25.875 24.3445 27.3164 19.6921 29.0625C15.0515 27.3164 13.9031 25.875 12.7078 23.9062C11.6062 22.0781 11.3367 18.1172 10.8679 10.8984L11.5476 10.6641C12.9304 10.2422 13.9617 9.90234 14.7234 9.75C15.8132 9.51562 16.7507 9.25781 19.6804 9.19922C22.6101 9.24609 23.5476 9.52734 24.6375 9.76172C25.3953 9.92578 26.4617 10.2266 27.8367 10.6641L28.5281 10.8984Z" fill="#D50000"/>
<path fill-rule="evenodd" clip-rule="evenodd" d="M27.8484 10.6641C27.4031 17.8711 27.0281 21.1758 26.4421 22.7578C25.3171 25.4766 23.5359 26.9648 19.6921 28.3828C15.8484 26.9648 14.0671 25.4766 12.9304 22.7578C12.3445 21.1641 11.9929 17.8711 11.5476 10.6523C12.907 10.2148 13.9656 9.91406 14.7234 9.75C15.8132 9.51562 16.7507 9.24609 19.6804 9.19922C22.6101 9.24609 23.5476 9.51562 24.6374 9.75C25.7222 9.99693 26.7938 10.2981 27.8484 10.6523V10.6641Z" fill="#0000BF"/>
<path fill-rule="evenodd" clip-rule="evenodd" d="M19.6921 12.8672L19.8679 13.3008L20.6882 13.418L20.1609 13.7344L20.6648 14.0742L19.9265 14.1914L19.6921 14.5898L19.4578 14.1797L18.7546 14.0859L19.2234 13.7344L18.7312 13.418L19.5164 13.3008L19.6921 12.8672Z" fill="#FFDF00"/>
<path fill-rule="evenodd" clip-rule="evenodd" d="M26.1726 21.0469L25.7156 20.6953L25.3992 20.1562L24.7664 19.6055L24.4265 19.0547L23.7937 18.4805L23.489 17.9297L23.1375 17.6602L22.9265 17.4375L22.3406 17.9414L22.0359 18.4922L21.6492 18.8438L21.2156 18.5039L20.8992 17.9414L19.6921 15.7969L18.4851 17.9414L18.1687 18.5039L17.7351 18.8438L17.3484 18.4922L17.032 17.9414L16.4578 17.4375L16.2351 17.6484L15.8953 17.9297L15.5906 18.4805L14.9578 19.0547L14.6179 19.6055L13.9851 20.1562L13.6687 20.6953L13.2117 21.0469C13.4709 22.6594 14.2339 24.1485 15.3914 25.3008C16.6485 26.3767 18.1062 27.1932 19.6804 27.7031C21.2667 27.2049 22.7343 26.3874 23.9929 25.3008C24.6726 24.5977 25.9382 23.0391 26.1726 21.0469Z" fill="white"/>
<path fill-rule="evenodd" clip-rule="evenodd" d="M21.614 9.83203L21.8015 10.2656L22.6218 10.3828L22.0828 10.6992L22.5984 11.0391L21.8601 11.1562L21.6257 11.5547L21.3914 11.1445L20.6882 11.0508L21.157 10.6992L20.6648 10.3828L21.4382 10.2656L21.614 9.83203ZM17.7468 9.83203L17.9343 10.2656L18.7546 10.3711L18.2273 10.6875L18.7312 11.0273L17.9929 11.1445L17.7585 11.543L17.5242 11.1445L16.821 11.0391L17.2898 10.6875L16.7976 10.3711L17.5828 10.2539L17.7468 9.83203Z" fill="#FFDF00"/>
<path fill-rule="evenodd" clip-rule="evenodd" d="M25.1648 23.7891H24.2976L23.4773 23.7305L22.5046 23.2617H21.4031L20.4539 23.7305L19.6921 23.8008L18.9421 23.7305L17.9929 23.2617H16.8796L15.8953 23.7305L15.0867 23.8008L14.196 23.7891L13.7742 23.0625L13.7859 23.0391L15.0984 23.2617L15.907 23.2031L16.8796 22.7227H17.9812L18.9421 23.1914L19.6921 23.2617L20.4539 23.1914L21.4031 22.7227H22.5046L23.489 23.1914L24.2976 23.2617L25.5632 23.0273L25.5867 23.0742L25.1648 23.7891ZM15.0398 24.9023L15.907 24.8438L16.8796 24.375H17.9812L18.9421 24.8438L19.6921 24.9023L20.4421 24.8438L21.4031 24.375H22.5046L23.4773 24.8438L24.3562 24.9023L24.9187 24.1992H24.907L24.2976 24.3633L23.489 24.3047L22.5164 23.8359H21.4148L20.4539 24.3047L19.7039 24.375L18.9421 24.3047L17.9929 23.8359H16.8796L15.8953 24.3047L15.0867 24.375L14.5007 24.2227V24.2461L15.0281 24.9023H15.0398Z" fill="#0000BF"/>
</g>
</g>
</g>
<defs>
<clipPath id="clip0_1671_586">
<rect width="80" height="60" fill="white"/>
</clipPath>
<clipPath id="clip1_1671_586">
<rect width="80" height="60" fill="white"/>
</clipPath>
<clipPath id="clip2_1671_586">
<rect width="80" height="60" fill="white"/>
</clipPath>
<clipPath id="clip3_1671_586">
<rect width="80" height="60" fill="white"/>
</clipPath>
<clipPath id="clip4_1671_586">
<rect width="80" height="60" fill="white"/>
</clipPath>
<clipPath id="clip5_1671_586">
<rect width="80" height="60" fill="white"/>
</clipPath>
<clipPath id="clip6_1671_586">
<rect width="80" height="60" fill="white"/>
</clipPath>
</defs>
</svg>
